# Blender v2.78 (sub 0) OBJ File: 'fence.blend'
# www.blender.org
mtllib Assets/Wall/fence.mtl
o Fence_Plane.015
v 0.012500 0.000000 -10.000000
v 0.012500 0.000000 10.000000
v 0.012500 2.250000 -10.000000
v 0.012500 5.250000 10.000000
v 0.012500 2.440100 -6.000000
v 0.012500 2.542900 -5.000000
v 0.012500 2.662200 -4.000000
v 0.012500 2.796000 -3.000000
v 0.012500 2.941000 -2.000000
v 0.012500 3.093600 -1.000000
v 0.012500 2.359000 -7.000000
v 0.012500 2.299000 -8.000000
v 0.012500 2.262300 -9.000000
v 0.012500 0.000000 -5.000000
v 0.012500 0.000000 -2.000000
v 0.012500 0.000000 -1.000000
v 0.012500 0.000000 -3.000000
v 0.012500 0.000000 -4.000000
v 0.012500 0.000000 -8.000000
v 0.012500 0.000000 -7.000000
v 0.012500 0.000000 -9.000000
v 0.012500 0.000000 -6.000000
v 0.012500 0.000000 0.000000
v 0.012500 3.250000 0.000000
v -0.012500 -0.000005 -10.000000
v -0.012500 -0.000005 10.054443
v -0.012500 2.249995 -10.000000
v -0.012500 5.249996 10.054443
v -0.012500 2.440095 -5.945557
v -0.012500 2.542896 -4.945557
v -0.012500 2.662195 -3.945557
v -0.012500 2.795995 -2.945557
v -0.012500 2.940995 -1.945557
v -0.012500 3.093596 -0.945557
v -0.012500 2.358995 -6.945557
v -0.012500 2.298995 -7.945557
v -0.012500 2.262295 -8.945557
v -0.012500 -0.000005 -4.945557
v -0.012500 -0.000005 -1.945557
v -0.012500 -0.000005 -0.945557
v -0.012500 -0.000005 -2.945557
v -0.012500 -0.000005 -3.945557
v -0.012500 -0.000005 -7.945557
v -0.012500 -0.000005 -6.945557
v -0.012500 -0.000005 -8.945557
v -0.012500 -0.000005 -5.945557
v -0.012500 -0.000005 0.054443
v -0.012500 3.249995 0.054443
vt 0.0000 0.5000
vt 0.5000 0.5000
vt 0.5000 1.3339
vt 0.5000 0.5927
vt 0.0000 0.5972
vt 0.0000 -0.2412
vt 0.0000 1.3384
vt -0.5000 0.5000
vt -0.5000 0.6108
vt -0.5000 -0.2412
vt 0.5000 0.5000
vt 0.5000 1.3520
vt 0.0000 0.5000
vt 0.5000 0.6108
vt 0.0000 0.6330
vt 0.0000 -0.2412
vt 0.0000 1.3743
vt -0.5000 0.5000
vt -0.5000 0.6631
vt -0.5000 -0.2412
vt 0.5000 0.5000
vt 0.5000 1.4043
vt 0.0000 0.5000
vt 0.5000 0.6631
vt 0.0000 0.7012
vt 0.0000 -0.2412
vt 0.0000 1.4424
vt -0.5000 0.5000
vt -0.5000 0.7454
vt -0.5000 -0.2412
vt 0.5000 0.5000
vt 0.5000 1.4866
vt 0.0000 0.5000
vt 0.5000 0.7454
vt 0.0000 0.7950
vt 0.0000 -0.2412
vt 0.0000 1.5362
vt -0.5000 0.5000
vt -0.5000 0.8487
vt -0.5000 -0.2412
vt 0.5000 0.5000
vt 0.5000 1.5900
vt 0.0000 0.5000
vt 0.5000 0.8487
vt 0.0000 0.9053
vt 0.0000 -0.2412
vt 0.0000 1.6465
vt -0.5000 0.5000
vt 0.0000 0.1641
vt -0.5000 0.2220
vt -0.5000 -0.9824
vt 0.5000 0.2220
vt -4.5000 0.9633
vt 0.5000 -0.9824
vt 0.5000 0.5000
vt -4.5000 2.4457
vt -4.5000 0.5000
vt 0.9728 0.5000
vt 1.4728 1.3339
vt 1.4728 0.5000
vt 0.4728 0.5926
vt -0.0272 -0.2412
vt -0.0272 0.5972
vt 0.4728 0.5000
vt 0.9728 1.3384
vt 0.9728 0.5972
vt 0.4728 -0.2412
vt 0.4728 0.6108
vt -0.0272 0.5000
vt 0.4728 1.3520
vt -0.0272 -0.2412
vt -0.0272 0.6330
vt 0.9728 0.5000
vt 0.4728 0.5000
vt 0.9728 1.3743
vt 0.9728 0.6330
vt 0.4728 -0.2412
vt 0.4728 0.6631
vt -0.0272 0.5000
vt 0.4728 1.4043
vt -0.0272 -0.2412
vt -0.0272 0.7012
vt 0.9728 0.5000
vt 0.4728 0.5000
vt 0.9728 1.4424
vt 0.9728 0.7012
vt 0.4728 -0.2412
vt 0.4728 0.7454
vt -0.0272 0.5000
vt 0.4728 1.4866
vt -0.0272 -0.2412
vt -0.0272 0.7950
vt 0.9728 0.5000
vt 0.4728 0.5000
vt 0.9728 1.5362
vt 0.9728 0.7950
vt 0.4728 -0.2412
vt 0.4728 0.8487
vt -0.0272 0.5000
vt 0.4728 1.5899
vt -0.0272 -0.2412
vt -0.0272 0.9053
vt 0.9728 0.5000
vt 0.4728 0.5000
vt 0.9728 1.6465
vt 0.9728 0.1641
vt 0.4728 -0.9824
vt 0.4728 0.2220
vt -4.5272 0.9633
vt -4.5272 0.5000
vt -4.5272 2.4457
vt 0.4728 -0.2412
vt 0.5000 -0.2412
vt 0.4875 0.8504
vt 0.5125 0.8706
vt 0.4875 1.2210
vt 0.5125 0.1294
vt 0.5125 0.5000
vt 0.4875 0.4798
vt 0.4875 0.4798
vt 0.5125 0.5000
vt 0.4875 0.8504
vt 0.5125 0.8706
vt 0.4875 1.2210
vt 0.5125 0.1294
vt 0.4875 0.4798
vt 0.5125 0.5000
vt 0.4875 0.8504
vt 0.5125 0.8706
vt 0.4875 1.2210
vt 0.5125 0.1294
vt 0.4875 0.4798
vt 0.5125 0.5000
vt 0.4875 0.8504
vt 0.5125 0.8706
vt 0.4875 1.2210
vt 0.5125 0.1294
vt 0.4875 0.4798
vt 0.5125 0.5000
vt 0.4875 0.8504
vt 0.5125 0.8706
vt 0.4875 1.2210
vt 0.5125 0.1294
vt 0.4875 0.4798
vt 0.5125 0.5000
vt 0.4875 0.4798
vt 0.5125 0.5000
vt 0.4875 4.1859
vt 0.5125 4.2061
vt 0.5000 0.2220
vt 0.4728 0.2220
vt 0.5000 -1.7236
vt 0.4728 -1.7236
vn 1.0000 0.0000 0.0000
vn -1.0000 0.0000 0.0000
vn 0.0000 0.0000 -1.0000
vn -0.0256 0.9996 -0.0117
vn -0.0002 0.9999 -0.0123
vn -0.0798 0.9961 -0.0366
vn -0.1295 0.9898 -0.0594
vn -0.1735 0.9816 -0.0796
vn -0.2175 0.9709 -0.0998
vn -0.2500 0.9614 -0.1147
vn -0.2776 0.9522 -0.1274
vn -0.2984 0.9446 -0.1370
vn -0.3123 0.9391 -0.1433
vn -0.3191 0.9363 -0.1464
vn -0.3929 0.9017 -0.1803
vn 0.9088 0.0000 0.4173
usemtl wood
s off
f 21/1/1 1/2/1 3/3/1
f 3/4/1 13/5/1 21/6/1
f 21/1/1 13/7/1 19/8/1
f 13/5/1 12/9/1 19/10/1
f 19/11/1 12/12/1 20/13/1
f 12/14/1 11/15/1 20/16/1
f 20/13/1 11/17/1 22/18/1
f 11/15/1 5/19/1 22/20/1
f 22/21/1 5/22/1 14/23/1
f 5/24/1 6/25/1 14/26/1
f 14/23/1 6/27/1 18/28/1
f 6/25/1 7/29/1 18/30/1
f 18/31/1 7/32/1 17/33/1
f 7/34/1 8/35/1 17/36/1
f 17/33/1 8/37/1 15/38/1
f 8/35/1 9/39/1 15/40/1
f 15/41/1 9/42/1 16/43/1
f 9/44/1 10/45/1 16/46/1
f 16/43/1 10/47/1 23/48/1
f 10/49/1 24/50/1 23/51/1
f 24/52/1 4/53/1 23/54/1
f 23/55/1 4/56/1 2/57/1
f 45/58/2 27/59/2 25/60/2
f 27/61/2 45/62/2 37/63/2
f 45/58/2 43/64/2 37/65/2
f 37/66/2 43/67/2 36/68/2
f 43/64/2 44/69/2 36/70/2
f 36/68/2 44/71/2 35/72/2
f 44/73/2 46/74/2 35/75/2
f 35/76/2 46/77/2 29/78/2
f 46/74/2 38/79/2 29/80/2
f 29/78/2 38/81/2 30/82/2
f 38/83/2 42/84/2 30/85/2
f 30/86/2 42/87/2 31/88/2
f 42/84/2 41/89/2 31/90/2
f 31/88/2 41/91/2 32/92/2
f 41/93/2 39/94/2 32/95/2
f 32/96/2 39/97/2 33/98/2
f 39/94/2 40/99/2 33/100/2
f 33/98/2 40/101/2 34/102/2
f 40/103/2 47/104/2 34/105/2
f 34/106/2 47/107/2 48/108/2
f 48/108/2 47/107/2 28/109/2
f 47/104/2 26/110/2 28/111/2
f 27/61/3 3/4/3 25/112/3
f 3/4/3 1/113/3 25/112/3
f 37/114/4 13/115/4 27/116/4
f 13/117/5 3/118/5 27/119/5
f 36/120/6 12/121/6 37/114/6
f 12/121/6 13/115/6 37/114/6
f 35/122/7 11/123/7 36/124/7
f 11/125/7 12/121/7 36/120/7
f 29/126/8 5/127/8 35/122/8
f 5/127/8 11/123/8 35/122/8
f 30/128/9 6/129/9 29/130/9
f 6/131/9 5/127/9 29/126/9
f 31/132/10 7/133/10 30/128/10
f 7/133/10 6/129/10 30/128/10
f 32/134/11 8/135/11 31/136/11
f 8/137/11 7/133/11 31/132/11
f 33/138/12 9/139/12 32/134/12
f 9/139/12 8/135/12 32/134/12
f 34/140/13 10/141/13 33/142/13
f 10/143/13 9/139/13 33/138/13
f 48/144/14 24/145/14 34/140/14
f 24/145/14 10/141/14 34/140/14
f 28/146/15 4/147/15 48/148/15
f 4/147/15 24/149/15 48/148/15
f 4/150/16 28/151/16 2/152/16
f 28/151/16 26/153/16 2/152/16
