# Blender v2.76 (sub 0) OBJ File: 'wall_east_west.blend'
# www.blender.org
mtllib Assets/Wall/wall_east_west.mtl
o Wall_Cube
v -0.100000 -1.000000 -5.000000
v 0.100000 -1.000000 -5.000000
v 0.100000 -1.000000 5.000000
v -0.100000 -1.000000 4.999998
v -0.100000 1.000000 -5.000002
v 0.100000 1.000000 -4.999997
v 0.100000 1.000000 5.000002
v -0.100000 1.000000 5.000000
vt 3.000000 -1.000000
vt -1.000000 -1.000000
vt -1.000000 0.000000
vt -1.000000 1.000000
vt 3.000000 -0.000000
vt 3.000000 1.000000
vt 6.000000 1.000000
vt 6.000000 0.000000
vn 0.000000 -1.000000 0.000000
vn 0.000000 1.000000 0.000000
vn 0.000000 0.000000 -1.000000
vn 1.000000 0.000000 -0.000000
vn -0.000000 -0.000000 1.000000
vn -1.000000 0.000000 0.000000
usemtl wall
s off
f 2/1/1 3/2/1 4/3/1
f 8/4/2 7/3/2 6/5/2
f 5/6/3 6/4/3 2/3/3
f 6/6/4 7/4/4 3/3/4
f 7/6/5 8/7/5 4/8/5
f 1/1/6 4/2/6 8/3/6
f 1/5/1 2/1/1 4/3/1
f 5/6/2 8/4/2 6/5/2
f 1/5/3 5/6/3 2/3/3
f 2/5/4 6/6/4 3/3/4
f 3/5/5 7/6/5 4/8/5
f 5/5/6 1/1/6 8/3/6
