# Blender v2.78 (sub 0) OBJ File: 'grass_bottom_mid_to_top.blend'
# www.blender.org
mtllib Assets/Track/grass_bottom_mid_to_top.mtl
o Grass_Plane.015
v 4.000000 1.156400 -5.000000
v 5.000000 1.000000 -5.000000
v 4.000000 0.049000 5.000000
v 5.000000 0.000000 5.000000
v 3.000000 1.309000 -5.000000
v 3.000000 0.190100 5.000000
v 2.000000 1.454000 -5.000000
v 2.000000 0.412200 5.000000
v 1.000000 1.587800 -5.000000
v 1.000000 0.691000 5.000000
v -0.000000 1.707100 -5.000000
v 0.000000 1.000000 5.000000
v -1.000000 1.809000 -5.000000
v -1.000000 1.309000 5.000000
v -2.000000 1.891000 -5.000000
v -2.000000 1.587800 5.000000
v -3.000000 1.951100 -5.000000
v -3.000000 1.809000 5.000000
v -4.000000 1.987700 -5.000000
v -4.000000 1.951100 5.000000
v -5.000000 2.000000 -5.000000
v -5.000000 2.000000 5.000000
v 5.000000 0.292900 -0.000000
v 5.000000 0.109000 2.000000
v 5.000000 0.546000 -2.000000
v 5.000000 0.012300 4.000000
v 5.000000 0.412200 -1.000000
v 5.000000 0.190100 1.000000
v 5.000000 0.843600 -4.000000
v 5.000000 0.691000 -3.000000
v 5.000000 0.049000 3.000000
v 4.000000 0.373400 -0.000000
v 4.000000 0.653600 -2.000000
v 4.000000 0.169700 2.000000
v 4.000000 0.983200 -4.000000
v 4.000000 0.259500 1.000000
v 4.000000 0.505500 -1.000000
v 4.000000 0.062600 4.000000
v 4.000000 0.103300 3.000000
v 4.000000 0.814200 -3.000000
v 3.000000 0.517800 -0.000000
v 3.000000 0.801000 -2.000000
v 3.000000 0.312100 2.000000
v 3.000000 1.134000 -4.000000
v 3.000000 0.402800 1.000000
v 3.000000 0.651300 -1.000000
v 3.000000 0.203900 4.000000
v 3.000000 0.963300 -3.000000
v 3.000000 0.244900 3.000000
v 2.000000 0.717300 -0.000000
v 2.000000 0.981000 -2.000000
v 2.000000 0.525800 2.000000
v 2.000000 1.291100 -4.000000
v 2.000000 0.610200 1.000000
v 2.000000 0.841600 -1.000000
v 2.000000 0.425000 4.000000
v 2.000000 1.132100 -3.000000
v 2.000000 0.463200 3.000000
v 1.000000 0.952900 -0.000000
v 1.000000 1.179100 -2.000000
v 1.000000 0.788400 2.000000
v 1.000000 1.445200 -4.000000
v 1.000000 0.860900 1.000000
v 1.000000 1.059500 -1.000000
v 1.000000 0.702000 4.000000
v 1.000000 0.734800 3.000000
v 0.000000 1.207100 0.000000
v -0.000000 1.386100 -2.000000
v 0.000000 1.077100 2.000000
v -0.000000 1.596500 -4.000000
v 0.000000 1.134400 1.000000
v -0.000000 1.291500 -1.000000
v 0.000000 1.008700 4.000000
v -0.000000 1.488600 -3.000000
v 0.000000 1.034600 3.000000
v -1.000000 1.455500 0.000000
v -1.000000 1.582000 -2.000000
v -1.000000 1.363500 2.000000
v -1.000000 1.730800 -4.000000
v -1.000000 1.404000 1.000000
v -1.000000 1.515100 -1.000000
v -1.000000 1.315200 4.000000
v -1.000000 1.654500 -3.000000
v -1.000000 1.333500 3.000000
v -2.000000 1.676600 0.000000
v -2.000000 1.753300 -2.000000
v -2.000000 1.620800 2.000000
v -2.000000 1.843600 -4.000000
v -2.000000 1.645400 1.000000
v -2.000000 1.712800 -1.000000
v -2.000000 1.591500 4.000000
v -2.000000 1.797300 -3.000000
v -2.000000 1.602700 3.000000
v -3.000000 1.850600 0.000000
v -3.000000 1.886600 -2.000000
v -3.000000 1.824500 2.000000
v -3.000000 1.928900 -4.000000
v -3.000000 1.836000 1.000000
v -3.000000 1.867600 -1.000000
v -3.000000 1.810700 4.000000
v -3.000000 1.907200 -3.000000
v -3.000000 1.816000 3.000000
v -4.000000 1.961800 0.000000
v -4.000000 1.971100 -2.000000
v -4.000000 1.955100 2.000000
v -4.000000 1.982000 -4.000000
v -4.000000 1.958100 1.000000
v -4.000000 1.966200 -1.000000
v -4.000000 1.951600 4.000000
v -4.000000 1.976400 -3.000000
v -4.000000 1.952900 3.000000
v -5.000000 2.000000 0.000000
v -5.000000 2.000000 -2.000000
v -5.000000 2.000000 2.000000
v -5.000000 2.000000 -4.000000
v -5.000000 2.000000 1.000000
v -5.000000 1.999995 -1.000000
v -5.000000 2.000000 4.000000
v -5.000000 2.000000 -3.000000
v -5.000000 2.000000 3.000000
v 1.000000 1.308800 -3.000000
vt 4.5109 5.0035
vt 5.0099 5.0016
vt 4.5081 4.5029
vt 5.0073 4.5013
vt 4.5055 4.0023
vt 5.0048 4.0010
vt 4.5030 3.5017
vt 5.0024 3.5008
vt 4.5007 3.0012
vt 5.0003 3.0006
vt 4.4987 2.5008
vt 4.9985 2.5004
vt 4.4970 2.0005
vt 4.9970 2.0003
vt 4.4957 1.5092
vt 4.9958 1.5091
vt 4.4948 1.0001
vt 4.9949 1.0001
vt 4.4942 0.5001
vt 4.9944 0.5001
vt 4.4940 0.0002
vt 4.9942 0.0002
vt 3.9940 0.0001
vt 3.9942 0.5000
vt 3.9947 1.0001
vt 3.9957 1.5091
vt 3.9970 2.0005
vt 3.9986 2.5008
vt 4.0006 3.0013
vt 4.0029 3.5019
vt 4.0055 4.0026
vt 4.0083 4.5033
vt 4.0111 5.0039
vt 3.5104 5.0031
vt 3.5076 4.5027
vt 3.5050 4.0021
vt 3.5026 3.5015
vt 3.5005 3.0011
vt 3.4987 2.5007
vt 3.4972 2.0004
vt 3.4960 1.5091
vt 3.4952 1.0000
vt 3.4947 0.5000
vt 3.4945 0.0001
vt 2.9956 0.0001
vt 2.9957 0.5000
vt 2.9961 1.0000
vt 2.9967 1.5090
vt 2.9977 2.0002
vt 2.9989 2.5003
vt 3.0004 3.0006
vt 3.0021 3.5008
vt 3.0041 4.0011
vt 3.0063 4.5014
vt 3.0086 5.0016
vt 2.5060 4.9999
vt 2.5044 4.5001
vt 2.5029 4.0001
vt 2.5015 3.5001
vt 2.5003 3.0000
vt 2.4992 2.5000
vt 2.4984 2.0000
vt 2.4977 1.5089
vt 2.4972 1.0000
vt 2.4970 0.5000
vt 2.4969 0.0001
vt 1.9982 0.0001
vt 1.9983 0.5000
vt 1.9984 0.9999
vt 1.9987 1.5088
vt 1.9991 1.9998
vt 1.9996 2.4997
vt 2.0002 2.9995
vt 2.0009 3.4993
vt 2.0016 3.9991
vt 2.0025 4.4988
vt 2.0033 4.9984
vt 1.5010 4.9973
vt 1.5008 4.4979
vt 1.5006 3.9984
vt 1.5003 3.4988
vt 1.5001 2.9992
vt 1.4999 2.4995
vt 1.4997 1.9997
vt 1.4996 1.5087
vt 1.4994 0.9999
vt 1.4994 0.5000
vt 1.4993 0.0001
vt 1.0001 0.0001
vt 1.0001 0.5000
vt 1.0001 0.9999
vt 1.0001 1.5087
vt 1.0001 1.9996
vt 1.0001 2.4993
vt 1.0001 2.9989
vt 1.0000 3.4984
vt 0.9999 3.9979
vt 0.9997 4.4973
vt 0.9995 4.9966
vt 0.4992 4.4968
vt 0.4988 4.9961
vt 0.4996 3.9975
vt 0.4998 3.4981
vt 0.5001 2.9987
vt 0.5002 2.4992
vt 0.5003 1.9995
vt 0.5004 1.5087
vt 0.5004 1.0000
vt 0.5004 0.5000
vt 0.5004 0.0001
vt 0.0019 0.0001
vt 0.0019 0.5000
vt 0.0018 0.9999
vt 0.0018 1.5086
vt 0.0017 1.9994
vt 0.0016 2.4990
vt 0.0014 2.9985
vt 0.0012 3.4978
vt 0.0009 3.9971
vt 0.0005 4.4964
vt 0.0001 4.9957
vn 0.0489 0.9987 0.0136
vn 0.0502 0.9987 0.0123
vn 0.0502 0.9979 0.0406
vn 0.0542 0.9979 0.0366
vn 0.0541 0.9963 0.0662
vn 0.0605 0.9964 0.0598
vn 0.0603 0.9942 0.0893
vn 0.0690 0.9944 0.0806
vn 0.0688 0.9912 0.1129
vn 0.0798 0.9916 0.1019
vn 0.0796 0.9882 0.1305
vn 0.0922 0.9887 0.1180
vn 0.0919 0.9850 0.1459
vn 0.1060 0.9856 0.1319
vn 0.1056 0.9818 0.1577
vn 0.1210 0.9824 0.1424
vn 0.1206 0.9788 0.1654
vn 0.1367 0.9793 0.1494
vn 0.1363 0.9761 0.1691
vn 0.1527 0.9764 0.1527
vn 0.1469 0.9743 0.1705
vn 0.1487 0.9744 0.1688
vn 0.1471 0.9753 0.1648
vn 0.1454 0.9753 0.1665
vn 0.1456 0.9768 0.1569
vn 0.1440 0.9768 0.1585
vn 0.1443 0.9789 0.1450
vn 0.1427 0.9789 0.1465
vn 0.1431 0.9812 0.1296
vn 0.1417 0.9812 0.1310
vn 0.1420 0.9835 0.1120
vn 0.1409 0.9835 0.1131
vn 0.1413 0.9860 0.0885
vn 0.1404 0.9860 0.0894
vn 0.1407 0.9879 0.0656
vn 0.1399 0.9879 0.0664
vn 0.1401 0.9893 0.0403
vn 0.1398 0.9893 0.0406
vn 0.1399 0.9901 0.0135
vn 0.1397 0.9901 0.0137
vn 0.2168 0.9761 0.0125
vn 0.2159 0.9763 0.0135
vn 0.2157 0.9757 0.0373
vn 0.2131 0.9762 0.0400
vn 0.2129 0.9752 0.0610
vn 0.2085 0.9758 0.0656
vn 0.2083 0.9746 0.0823
vn 0.2023 0.9753 0.0885
vn 0.2020 0.9738 0.1043
vn 0.1944 0.9745 0.1121
vn 0.1942 0.9735 0.1210
vn 0.1854 0.9740 0.1300
vn 0.1852 0.9733 0.1357
vn 0.1753 0.9737 0.1458
vn 0.1752 0.9735 0.1471
vn 0.1644 0.9737 0.1580
vn 0.1644 0.9742 0.1549
vn 0.1530 0.9741 0.1663
vn 0.1532 0.9753 0.1589
vn 0.1414 0.9751 0.1706
vn 0.1508 0.9787 0.1396
vn 0.1309 0.9785 0.1594
vn 0.1505 0.9764 0.1552
vn 0.1725 0.9760 0.1331
vn 0.1721 0.9740 0.1472
vn 0.1928 0.9731 0.1262
vn 0.1925 0.9719 0.1355
vn 0.2115 0.9705 0.1161
vn 0.2114 0.9699 0.1206
vn 0.2281 0.9682 0.1032
vn 0.2281 0.9681 0.1037
vn 0.2422 0.9661 0.0889
vn 0.2424 0.9667 0.0816
vn 0.2534 0.9648 0.0700
vn 0.2535 0.9654 0.0604
vn 0.2618 0.9638 0.0517
vn 0.2619 0.9644 0.0368
vn 0.2668 0.9632 0.0316
vn 0.2669 0.9636 0.0123
vn 0.2685 0.9632 0.0106
vn 0.2952 0.9554 0.0083
vn 0.2932 0.9560 0.0105
vn 0.2931 0.9558 0.0248
vn 0.2870 0.9574 0.0314
vn 0.2869 0.9571 0.0407
vn 0.2770 0.9595 0.0514
vn 0.2770 0.9593 0.0550
vn 0.2632 0.9622 0.0698
vn 0.2632 0.9622 0.0700
vn 0.2454 0.9653 0.0888
vn 0.2455 0.9660 0.0815
vn 0.2248 0.9689 0.1033
vn 0.2250 0.9700 0.0918
vn 0.2013 0.9726 0.1163
vn 0.2017 0.9743 0.0999
vn 0.1755 0.9763 0.1266
vn 0.1760 0.9787 0.1056
vn 0.1483 0.9799 0.1337
vn 0.1487 0.9829 0.1087
vn 0.1173 0.9832 0.1402
vn 0.1327 0.9881 0.0773
vn 0.1008 0.9889 0.1094
vn 0.1324 0.9855 0.1063
vn 0.1632 0.9837 0.0751
vn 0.1628 0.9815 0.1006
vn 0.1918 0.9789 0.0710
vn 0.1914 0.9771 0.0924
vn 0.2177 0.9738 0.0651
vn 0.2175 0.9726 0.0821
vn 0.2407 0.9689 0.0577
vn 0.2405 0.9681 0.0704
vn 0.2600 0.9643 0.0497
vn 0.2599 0.9641 0.0552
vn 0.2751 0.9606 0.0389
vn 0.2751 0.9605 0.0408
vn 0.2863 0.9577 0.0287
vn 0.2863 0.9578 0.0248
vn 0.2930 0.9560 0.0175
vn 0.2930 0.9561 0.0083
vn 0.2952 0.9554 0.0059
vn 0.2686 0.9633 0.0036
vn 0.2663 0.9639 0.0060
vn 0.2663 0.9638 0.0108
vn 0.2599 0.9655 0.0177
vn 0.2599 0.9655 0.0175
vn 0.2491 0.9680 0.0290
vn 0.2491 0.9682 0.0238
vn 0.2345 0.9713 0.0393
vn 0.2346 0.9716 0.0303
vn 0.2156 0.9752 0.0502
vn 0.2158 0.9758 0.0353
vn 0.1936 0.9793 0.0584
vn 0.1938 0.9802 0.0397
vn 0.1685 0.9835 0.0658
vn 0.1687 0.9847 0.0433
vn 0.1410 0.9874 0.0716
vn 0.1412 0.9889 0.0458
vn 0.1118 0.9909 0.0756
vn 0.1120 0.9926 0.0470
vn 0.0815 0.9936 0.0777
vn 0.0850 0.9961 0.0221
vn 0.0599 0.9971 0.0473
vn 0.1092 0.9938 0.0216
vn 0.0849 0.9953 0.0461
vn 0.1091 0.9931 0.0437
vn 0.1321 0.9910 0.0204
vn 0.1320 0.9904 0.0401
vn 0.1530 0.9881 0.0188
vn 0.1529 0.9876 0.0358
vn 0.1714 0.9851 0.0167
vn 0.1713 0.9847 0.0307
vn 0.1872 0.9822 0.0143
vn 0.1872 0.9820 0.0242
vn 0.1996 0.9798 0.0113
vn 0.1996 0.9797 0.0177
vn 0.2086 0.9780 0.0083
vn 0.2086 0.9779 0.0110
vn 0.2141 0.9768 0.0052
vn 0.2141 0.9768 0.0036
vn 0.2160 0.9764 0.0017
vn 0.1395 0.9902 0.0017
vn 0.1407 0.9901 0.0005
vn 0.1356 0.9907 0.0053
vn 0.1395 0.9902 0.0013
vn 0.1295 0.9915 0.0084
vn 0.1356 0.9908 0.0022
vn 0.1212 0.9926 0.0114
vn 0.1295 0.9916 0.0030
vn 0.1105 0.9938 0.0145
vn 0.1212 0.9926 0.0037
vn 0.0981 0.9950 0.0169
vn 0.1105 0.9939 0.0044
vn 0.0842 0.9963 0.0189
vn 0.0981 0.9952 0.0049
vn 0.0690 0.9974 0.0205
vn 0.0842 0.9964 0.0053
vn 0.0530 0.9984 0.0217
vn 0.0690 0.9976 0.0056
vn 0.0366 0.9991 0.0222
vn 0.0530 0.9986 0.0057
vn 0.0123 0.9999 0.0057
vn 0.0180 0.9998 0.0000
vn 0.0180 0.9998 0.0056
vn 0.0236 0.9997 0.0000
vn 0.0236 0.9997 0.0053
vn 0.0289 0.9996 0.0000
vn 0.0289 0.9996 0.0049
vn 0.0338 0.9994 0.0000
vn 0.0338 0.9994 0.0044
vn 0.0382 0.9993 -0.0000
vn 0.0382 0.9993 0.0037
vn 0.0419 0.9991 -0.0000
vn 0.0419 0.9991 0.0030
vn 0.0449 0.9990 0.0000
vn 0.0449 0.9990 0.0022
vn 0.0470 0.9989 0.0000
vn 0.0470 0.9989 0.0013
vn 0.0483 0.9988 0.0000
vn 0.0483 0.9988 0.0005
vn 0.0488 0.9988 0.0000
usemtl grass
s off
f 3/1/1 4/2/1 38/3/1
f 4/2/2 26/4/2 38/3/2
f 38/3/3 26/4/3 39/5/3
f 26/4/4 31/6/4 39/5/4
f 39/5/5 31/6/5 34/7/5
f 31/6/6 24/8/6 34/7/6
f 34/7/7 24/8/7 36/9/7
f 24/8/8 28/10/8 36/9/8
f 36/9/9 28/10/9 32/11/9
f 28/10/10 23/12/10 32/11/10
f 32/11/11 23/12/11 37/13/11
f 23/12/12 27/14/12 37/13/12
f 37/13/13 27/14/13 33/15/13
f 27/14/14 25/16/14 33/15/14
f 33/15/15 25/16/15 40/17/15
f 25/16/16 30/18/16 40/17/16
f 40/17/17 30/18/17 35/19/17
f 30/18/18 29/20/18 35/19/18
f 35/19/19 29/20/19 1/21/19
f 2/22/20 1/21/20 29/20/20
f 5/23/21 44/24/21 35/19/21
f 1/21/22 5/23/22 35/19/22
f 35/19/23 44/24/23 40/17/23
f 44/24/24 48/25/24 40/17/24
f 40/17/25 48/25/25 33/15/25
f 48/25/26 42/26/26 33/15/26
f 33/15/27 42/26/27 37/13/27
f 42/26/28 46/27/28 37/13/28
f 37/13/29 46/27/29 32/11/29
f 46/27/30 41/28/30 32/11/30
f 32/11/31 41/28/31 36/9/31
f 41/28/32 45/29/32 36/9/32
f 36/9/33 45/29/33 34/7/33
f 45/29/34 43/30/34 34/7/34
f 34/7/35 43/30/35 39/5/35
f 43/30/36 49/31/36 39/5/36
f 39/5/37 49/31/37 38/3/37
f 49/31/38 47/32/38 38/3/38
f 38/3/39 47/32/39 3/1/39
f 6/33/40 3/1/40 47/32/40
f 8/34/41 6/33/41 56/35/41
f 47/32/42 56/35/42 6/33/42
f 56/35/43 47/32/43 58/36/43
f 47/32/44 49/31/44 58/36/44
f 58/36/45 49/31/45 52/37/45
f 49/31/46 43/30/46 52/37/46
f 52/37/47 43/30/47 54/38/47
f 43/30/48 45/29/48 54/38/48
f 54/38/49 45/29/49 50/39/49
f 45/29/50 41/28/50 50/39/50
f 50/39/51 41/28/51 55/40/51
f 41/28/52 46/27/52 55/40/52
f 55/40/53 46/27/53 51/41/53
f 46/27/54 42/26/54 51/41/54
f 51/41/55 42/26/55 57/42/55
f 42/26/56 48/25/56 57/42/56
f 57/42/57 48/25/57 53/43/57
f 48/25/58 44/24/58 53/43/58
f 53/43/59 44/24/59 7/44/59
f 44/24/60 5/23/60 7/44/60
f 9/45/61 62/46/61 53/43/61
f 7/44/62 9/45/62 53/43/62
f 53/43/63 62/46/63 57/42/63
f 62/46/64 121/47/64 57/42/64
f 57/42/65 121/47/65 51/41/65
f 121/47/66 60/48/66 51/41/66
f 51/41/67 60/48/67 55/40/67
f 60/48/68 64/49/68 55/40/68
f 55/40/69 64/49/69 50/39/69
f 64/49/70 59/50/70 50/39/70
f 50/39/71 59/50/71 54/38/71
f 59/50/72 63/51/72 54/38/72
f 54/38/73 63/51/73 52/37/73
f 63/51/74 61/52/74 52/37/74
f 52/37/75 61/52/75 58/36/75
f 61/52/76 66/53/76 58/36/76
f 58/36/77 66/53/77 56/35/77
f 66/53/78 65/54/78 56/35/78
f 56/35/79 65/54/79 8/34/79
f 10/55/80 8/34/80 65/54/80
f 12/56/81 10/55/81 73/57/81
f 65/54/82 73/57/82 10/55/82
f 73/57/83 65/54/83 75/58/83
f 65/54/84 66/53/84 75/58/84
f 75/58/85 66/53/85 69/59/85
f 66/53/86 61/52/86 69/59/86
f 69/59/87 61/52/87 71/60/87
f 61/52/88 63/51/88 71/60/88
f 71/60/89 63/51/89 67/61/89
f 63/51/90 59/50/90 67/61/90
f 67/61/91 59/50/91 72/62/91
f 59/50/92 64/49/92 72/62/92
f 72/62/93 64/49/93 68/63/93
f 64/49/94 60/48/94 68/63/94
f 68/63/95 60/48/95 74/64/95
f 60/48/96 121/47/96 74/64/96
f 74/64/97 121/47/97 70/65/97
f 121/47/98 62/46/98 70/65/98
f 70/65/99 62/46/99 11/66/99
f 62/46/100 9/45/100 11/66/100
f 13/67/101 79/68/101 70/65/101
f 11/66/102 13/67/102 70/65/102
f 70/65/103 79/68/103 74/64/103
f 79/68/104 83/69/104 74/64/104
f 74/64/105 83/69/105 68/63/105
f 83/69/106 77/70/106 68/63/106
f 68/63/107 77/70/107 72/62/107
f 77/70/108 81/71/108 72/62/108
f 72/62/109 81/71/109 67/61/109
f 81/71/110 76/72/110 67/61/110
f 67/61/111 76/72/111 71/60/111
f 76/72/112 80/73/112 71/60/112
f 71/60/113 80/73/113 69/59/113
f 80/73/114 78/74/114 69/59/114
f 69/59/115 78/74/115 75/58/115
f 78/74/116 84/75/116 75/58/116
f 75/58/117 84/75/117 73/57/117
f 84/75/118 82/76/118 73/57/118
f 73/57/119 82/76/119 12/56/119
f 14/77/120 12/56/120 82/76/120
f 16/78/121 14/77/121 91/79/121
f 82/76/122 91/79/122 14/77/122
f 91/79/123 82/76/123 93/80/123
f 82/76/124 84/75/124 93/80/124
f 93/80/125 84/75/125 87/81/125
f 84/75/126 78/74/126 87/81/126
f 87/81/127 78/74/127 89/82/127
f 78/74/128 80/73/128 89/82/128
f 89/82/129 80/73/129 85/83/129
f 80/73/130 76/72/130 85/83/130
f 85/83/131 76/72/131 90/84/131
f 76/72/132 81/71/132 90/84/132
f 90/84/133 81/71/133 86/85/133
f 81/71/134 77/70/134 86/85/134
f 86/85/135 77/70/135 92/86/135
f 77/70/136 83/69/136 92/86/136
f 92/86/137 83/69/137 88/87/137
f 83/69/138 79/68/138 88/87/138
f 88/87/139 79/68/139 15/88/139
f 79/68/140 13/67/140 15/88/140
f 17/89/141 97/90/141 88/87/141
f 15/88/142 17/89/142 88/87/142
f 101/91/143 92/86/143 97/90/143
f 88/87/144 97/90/144 92/86/144
f 92/86/145 101/91/145 86/85/145
f 101/91/146 95/92/146 86/85/146
f 86/85/147 95/92/147 90/84/147
f 95/92/148 99/93/148 90/84/148
f 90/84/149 99/93/149 85/83/149
f 99/93/150 94/94/150 85/83/150
f 85/83/151 94/94/151 89/82/151
f 94/94/152 98/95/152 89/82/152
f 89/82/153 98/95/153 87/81/153
f 98/95/154 96/96/154 87/81/154
f 87/81/155 96/96/155 93/80/155
f 96/96/156 102/97/156 93/80/156
f 93/80/157 102/97/157 91/79/157
f 102/97/158 100/98/158 91/79/158
f 91/79/159 100/98/159 16/78/159
f 18/99/160 16/78/160 100/98/160
f 100/98/161 109/100/161 18/99/161
f 18/99/162 109/100/162 20/101/162
f 102/97/163 111/102/163 100/98/163
f 109/100/164 100/98/164 111/102/164
f 96/96/165 105/103/165 102/97/165
f 111/102/166 102/97/166 105/103/166
f 98/95/167 107/104/167 96/96/167
f 105/103/168 96/96/168 107/104/168
f 94/94/169 103/105/169 98/95/169
f 107/104/170 98/95/170 103/105/170
f 99/93/171 108/106/171 94/94/171
f 103/105/172 94/94/172 108/106/172
f 95/92/173 104/107/173 99/93/173
f 108/106/174 99/93/174 104/107/174
f 101/91/175 110/108/175 95/92/175
f 104/107/176 95/92/176 110/108/176
f 97/90/177 106/109/177 101/91/177
f 110/108/178 101/91/178 106/109/178
f 17/89/179 19/110/179 97/90/179
f 106/109/180 97/90/180 19/110/180
f 19/110/181 21/111/181 106/109/181
f 21/111/182 115/112/182 106/109/182
f 106/109/183 115/112/183 110/108/183
f 115/112/184 119/113/184 110/108/184
f 110/108/185 119/113/185 104/107/185
f 119/113/186 113/114/186 104/107/186
f 104/107/187 113/114/187 108/106/187
f 113/114/188 117/115/188 108/106/188
f 108/106/189 117/115/189 103/105/189
f 117/115/190 112/116/190 103/105/190
f 103/105/191 112/116/191 107/104/191
f 112/116/192 116/117/192 107/104/192
f 107/104/193 116/117/193 105/103/193
f 116/117/194 114/118/194 105/103/194
f 105/103/195 114/118/195 111/102/195
f 114/118/196 120/119/196 111/102/196
f 111/102/197 120/119/197 109/100/197
f 120/119/198 118/120/198 109/100/198
f 109/100/199 118/120/199 20/101/199
f 22/121/200 20/101/200 118/120/200
