# Blender v2.78 (sub 0) OBJ File: 'grass_top_mid_to_top.blend'
# www.blender.org
mtllib Assets/Track/grass_top_mid_to_top.mtl
o Grass_Plane.000
v -3.999999 1.000000 5.000001
v -4.999999 1.000000 5.000000
v -3.999998 0.987700 -4.999999
v -4.999998 1.000000 -5.000000
v -2.999998 1.000000 5.000001
v -2.999998 0.951100 -4.999999
v -1.999999 1.000000 5.000000
v -1.999998 0.891000 -4.999999
v -0.999999 1.000000 5.000000
v -0.999998 0.809000 -4.999999
v 0.000001 1.000000 5.000002
v 0.000002 0.707100 -5.000000
v 1.000001 1.000000 5.000002
v 1.000003 0.587800 -5.000000
v 2.000001 1.000000 5.000002
v 2.000003 0.454000 -5.000000
v 3.000001 1.000000 5.000000
v 3.000002 0.309000 -5.000000
v 4.000001 1.000000 5.000000
v 4.000002 0.156400 -5.000000
v 5.000001 1.000000 5.000001
v 5.000002 0.000000 -4.999999
v -4.999998 1.000000 0.000000
v -4.999999 1.000000 -3.000000
v -4.999996 1.000000 2.000000
v -4.999999 1.000000 -4.000000
v -4.999995 1.000000 -1.000000
v -4.999998 1.000000 -2.000000
v -4.999998 1.000000 4.000000
v -5.000000 1.000000 3.000000
v -4.999996 1.000000 1.000000
v -3.999996 0.996400 0.000000
v -3.999998 0.998700 2.000000
v -3.999999 0.993300 -2.000000
v -3.999998 0.999800 4.000000
v -3.999996 0.994900 -1.000000
v -3.999996 0.997700 1.000000
v -3.999999 0.989600 -3.999999
v -3.999998 0.999400 3.000000
v -3.999999 0.991500 -2.999999
v -2.999998 0.985700 0.000000
v -2.999997 0.994700 2.000000
v -2.999997 0.973300 -2.000000
v -2.999997 0.999400 4.000000
v -2.999998 0.979800 -1.000000
v -2.999998 0.990700 1.000000
v -2.999997 0.958700 -4.000000
v -1.999998 0.968100 0.000000
v -1.999998 0.988100 2.000000
v -1.999998 0.940500 -2.000000
v -1.999998 0.998700 4.000000
v -1.999998 0.955100 -1.000000
v -1.999999 0.979200 1.000000
v -1.999997 0.908000 -4.000000
v -0.999998 0.944100 0.000000
v -0.999998 0.979200 2.000000
v -0.999998 0.895700 -2.000000
v -0.999998 0.997700 4.000000
v -0.999998 0.921300 -1.000000
v -0.999999 0.963500 1.000000
v -0.999997 0.838900 -4.000000
v 0.000002 0.914200 0.000000
v 0.000002 0.968100 2.000001
v 0.000002 0.840100 -2.000000
v 0.000002 0.996400 4.000001
v 0.000002 0.879300 -1.000000
v 0.000001 0.944100 1.000001
v 0.000003 0.752900 -4.000000
v 1.000002 0.879300 0.000000
v 1.000002 0.955100 2.000001
v 1.000002 0.774900 -2.000000
v 1.000002 0.994900 4.000001
v 1.000002 0.830100 -1.000000
v 1.000002 0.921300 1.000000
v 1.000002 0.652300 -4.000000
v 2.000002 0.840100 -0.000001
v 2.000001 0.940500 2.000001
v 2.000002 0.701900 -2.000000
v 2.000002 0.993300 4.000000
v 2.000002 0.774900 -1.000000
v 2.000002 0.895700 1.000000
v 2.000002 0.539400 -4.000000
v 3.000002 0.797600 -0.000001
v 3.000001 0.924700 1.999999
v 3.000002 0.622700 -2.000001
v 3.000001 0.991500 3.999999
v 3.000002 0.715200 -1.000001
v 3.000002 0.868000 0.999999
v 3.000002 0.417100 -4.000000
v 4.000001 0.752900 0.000000
v 4.000001 0.908000 1.999999
v 4.000002 0.539400 -2.000001
v 4.000001 0.989600 3.999999
v 4.000001 0.652300 -1.000001
v 4.000001 0.838900 0.999999
v 4.000002 0.288300 -4.000000
v 5.000001 0.707100 0.000000
v 5.000001 0.891000 2.000000
v 5.000002 0.454000 -2.000000
v 5.000001 0.987700 4.000000
v 5.000001 0.587800 -1.000000
v 5.000001 0.809000 1.000000
v 5.000002 0.156400 -3.999999
v -2.999997 0.997600 3.000000
v -1.999998 0.994700 3.000000
v -0.999998 0.990700 3.000000
v 0.000002 0.985700 3.000001
v 1.000002 0.979800 3.000001
v 2.000002 0.973300 3.000001
v 3.000001 0.966200 2.999999
v 4.000001 0.958700 2.999999
v 5.000001 0.951100 3.000000
v -2.999997 0.966200 -3.000000
v -1.999997 0.924700 -3.000000
v -0.999997 0.868000 -3.000000
v 0.000003 0.797600 -3.000000
v 1.000002 0.715200 -3.000000
v 2.000002 0.622700 -3.000000
v 3.000002 0.522500 -3.000000
v 4.000002 0.417100 -3.000000
v 5.000002 0.309000 -2.999999
vt 0.0001 0.0001
vt 0.4975 0.0014
vt 0.4983 0.4977
vt 0.0012 0.4968
vt 0.4990 0.9983
vt 0.0022 0.9976
vt 0.4996 1.4987
vt 0.0030 1.4983
vt 0.5001 1.9992
vt 0.0036 1.9989
vt 0.5004 2.4995
vt 0.0040 2.4994
vt 0.5006 2.9997
vt 0.0043 2.9997
vt 0.5008 3.4999
vt 0.0045 3.4999
vt 0.5009 4.0000
vt 0.0046 4.0001
vt 0.5010 4.5000
vt 0.0047 4.5001
vt 0.5010 5.0001
vt 0.0048 5.0001
vt 0.9983 0.0025
vt 0.9988 0.4986
vt 0.9993 0.9989
vt 0.9997 1.4992
vt 1.0000 1.9994
vt 1.0003 2.4996
vt 1.0004 2.9998
vt 1.0006 3.4999
vt 1.0006 4.0000
vt 1.0007 4.5000
vt 1.0007 5.0000
vt 1.5004 4.4999
vt 1.5004 5.0000
vt 1.5004 3.9999
vt 1.5003 3.4999
vt 1.5003 2.9998
vt 1.5002 2.4998
vt 1.5000 1.9997
vt 1.4998 1.4996
vt 1.4996 0.9994
vt 1.4993 0.4993
vt 1.4990 0.0034
vt 1.9996 0.0042
vt 1.9997 0.4999
vt 1.9998 0.9999
vt 1.9999 1.4999
vt 2.0000 1.9999
vt 2.0001 2.4999
vt 2.0001 2.9999
vt 2.0001 3.4999
vt 2.0001 3.9999
vt 2.0001 4.4999
vt 2.0002 4.9999
vt 2.4999 4.4999
vt 2.4999 4.9999
vt 2.4999 3.9999
vt 2.5000 3.4999
vt 2.5000 3.0000
vt 2.5000 2.5000
vt 2.5000 2.0001
vt 2.5000 1.5002
vt 2.5001 1.0003
vt 2.5001 0.5004
vt 2.5001 0.0047
vt 3.0004 0.0052
vt 3.0003 0.5008
vt 3.0002 1.0006
vt 3.0001 1.5004
vt 3.0000 2.0002
vt 3.0000 2.5001
vt 2.9999 3.0000
vt 2.9998 3.5000
vt 2.9998 3.9999
vt 2.9998 4.4999
vt 2.9997 4.9999
vt 3.4997 4.5000
vt 3.4996 5.0000
vt 3.4997 4.0000
vt 3.4998 3.5000
vt 3.4998 3.0001
vt 3.4999 2.5002
vt 3.5000 2.0004
vt 3.5002 1.5006
vt 3.5003 1.0008
vt 3.5005 0.5011
vt 3.5006 0.0055
vt 4.0008 0.0058
vt 4.0006 0.5013
vt 4.0004 1.0010
vt 4.0002 1.5008
vt 4.0000 2.0006
vt 3.9999 2.5004
vt 3.9998 3.0002
vt 3.9997 3.5001
vt 3.9996 4.0001
vt 3.9996 4.5000
vt 3.9995 5.0000
vt 4.4995 5.0001
vt 4.4995 4.5001
vt 4.4996 4.0001
vt 4.4997 3.5002
vt 4.4998 3.0003
vt 4.4999 2.5005
vt 4.5001 2.0007
vt 4.5002 1.5010
vt 4.5004 1.0012
vt 4.5006 0.5015
vt 4.5008 0.0060
vt 5.0009 0.0062
vt 5.0007 0.5017
vt 5.0004 1.0014
vt 5.0003 1.5011
vt 5.0001 2.0009
vt 4.9999 2.5006
vt 4.9998 3.0004
vt 4.9997 3.5003
vt 4.9996 4.0002
vt 4.9995 4.5002
vt 4.9995 5.0001
vn 0.1532 0.9797 -0.1292
vn 0.1292 0.9797 -0.1532
vn 0.1297 0.9834 -0.1267
vn 0.1063 0.9830 -0.1500
vn 0.1067 0.9869 -0.1207
vn 0.0842 0.9861 -0.1430
vn 0.0846 0.9901 -0.1118
vn 0.0638 0.9891 -0.1323
vn 0.0640 0.9929 -0.0999
vn 0.0454 0.9919 -0.1183
vn 0.0456 0.9953 -0.0856
vn 0.0297 0.9944 -0.1013
vn 0.0298 0.9972 -0.0689
vn 0.0169 0.9965 -0.0817
vn 0.0170 0.9986 -0.0506
vn 0.0076 0.9982 -0.0600
vn 0.0076 0.9995 -0.0309
vn 0.0019 0.9993 -0.0366
vn 0.0019 0.9999 -0.0104
vn 0.0000 0.9999 -0.0123
vn 0.1500 0.9830 -0.1063
vn 0.1267 0.9834 -0.1297
vn 0.1271 0.9864 -0.1040
vn 0.1040 0.9864 -0.1271
vn 0.1043 0.9896 -0.0992
vn 0.0824 0.9892 -0.1210
vn 0.0827 0.9923 -0.0918
vn 0.0624 0.9918 -0.1120
vn 0.0626 0.9947 -0.0820
vn 0.0444 0.9940 -0.1000
vn 0.0445 0.9965 -0.0702
vn 0.0290 0.9959 -0.0856
vn 0.0290 0.9980 -0.0566
vn 0.0167 0.9975 -0.0689
vn 0.0167 0.9990 -0.0415
vn 0.0075 0.9987 -0.0506
vn 0.0075 0.9997 -0.0253
vn 0.0019 0.9995 -0.0309
vn 0.0019 1.0000 -0.0085
vn 0.0000 0.9999 -0.0104
vn 0.0018 1.0000 -0.0067
vn -0.0000 1.0000 -0.0085
vn 0.0071 0.9998 -0.0200
vn 0.0018 0.9997 -0.0253
vn 0.0071 0.9991 -0.0415
vn 0.0158 0.9993 -0.0328
vn 0.0158 0.9983 -0.0566
vn 0.0277 0.9986 -0.0447
vn 0.0276 0.9972 -0.0702
vn 0.0424 0.9976 -0.0555
vn 0.0423 0.9957 -0.0820
vn 0.0595 0.9961 -0.0649
vn 0.0593 0.9940 -0.0919
vn 0.0787 0.9942 -0.0726
vn 0.0786 0.9919 -0.0994
vn 0.0994 0.9919 -0.0786
vn 0.0992 0.9896 -0.1043
vn 0.1210 0.9892 -0.0824
vn 0.1207 0.9869 -0.1067
vn 0.1430 0.9861 -0.0842
vn 0.1323 0.9891 -0.0638
vn 0.1118 0.9901 -0.0846
vn 0.1120 0.9918 -0.0624
vn 0.0918 0.9923 -0.0827
vn 0.0919 0.9940 -0.0593
vn 0.0726 0.9942 -0.0787
vn 0.0727 0.9958 -0.0550
vn 0.0550 0.9958 -0.0727
vn 0.0550 0.9973 -0.0491
vn 0.0391 0.9971 -0.0650
vn 0.0391 0.9984 -0.0419
vn 0.0256 0.9981 -0.0555
vn 0.0256 0.9991 -0.0338
vn 0.0146 0.9989 -0.0448
vn 0.0146 0.9996 -0.0247
vn 0.0065 0.9994 -0.0328
vn 0.0065 0.9999 -0.0151
vn 0.0016 0.9998 -0.0200
vn 0.0016 1.0000 -0.0051
vn -0.0000 1.0000 -0.0067
vn 0.0015 1.0000 -0.0036
vn 0.0000 1.0000 -0.0051
vn 0.0015 0.9999 -0.0151
vn 0.0059 0.9999 -0.0107
vn 0.0059 0.9997 -0.0247
vn 0.0130 0.9998 -0.0176
vn 0.0130 0.9993 -0.0338
vn 0.0228 0.9995 -0.0240
vn 0.0228 0.9989 -0.0420
vn 0.0349 0.9989 -0.0299
vn 0.0348 0.9982 -0.0491
vn 0.0491 0.9982 -0.0348
vn 0.0491 0.9973 -0.0550
vn 0.0650 0.9971 -0.0391
vn 0.0649 0.9961 -0.0595
vn 0.0820 0.9957 -0.0423
vn 0.0820 0.9947 -0.0626
vn 0.1000 0.9940 -0.0444
vn 0.0999 0.9929 -0.0640
vn 0.1183 0.9919 -0.0454
vn 0.1013 0.9944 -0.0297
vn 0.0856 0.9953 -0.0456
vn 0.0856 0.9959 -0.0290
vn 0.0702 0.9965 -0.0445
vn 0.0702 0.9972 -0.0276
vn 0.0555 0.9976 -0.0424
vn 0.0555 0.9981 -0.0256
vn 0.0419 0.9984 -0.0391
vn 0.0420 0.9989 -0.0228
vn 0.0299 0.9989 -0.0349
vn 0.0299 0.9994 -0.0194
vn 0.0194 0.9994 -0.0299
vn 0.0194 0.9997 -0.0157
vn 0.0111 0.9997 -0.0240
vn 0.0111 0.9999 -0.0115
vn 0.0050 0.9998 -0.0176
vn 0.0050 1.0000 -0.0070
vn 0.0013 0.9999 -0.0107
vn 0.0013 1.0000 -0.0023
vn 0.0000 1.0000 -0.0036
vn 0.0010 1.0000 -0.0013
vn 0.0000 1.0000 -0.0023
vn 0.0010 1.0000 -0.0070
vn 0.0040 1.0000 -0.0040
vn 0.0040 0.9999 -0.0115
vn 0.0089 0.9999 -0.0066
vn 0.0089 0.9998 -0.0157
vn 0.0157 0.9998 -0.0089
vn 0.0157 0.9997 -0.0194
vn 0.0240 0.9997 -0.0111
vn 0.0240 0.9995 -0.0228
vn 0.0338 0.9993 -0.0130
vn 0.0338 0.9991 -0.0256
vn 0.0448 0.9989 -0.0146
vn 0.0447 0.9986 -0.0277
vn 0.0566 0.9983 -0.0158
vn 0.0566 0.9980 -0.0290
vn 0.0689 0.9975 -0.0167
vn 0.0689 0.9972 -0.0298
vn 0.0817 0.9965 -0.0169
vn 0.0600 0.9982 -0.0076
vn 0.0506 0.9986 -0.0170
vn 0.0506 0.9987 -0.0075
vn 0.0415 0.9990 -0.0167
vn 0.0415 0.9991 -0.0071
vn 0.0328 0.9993 -0.0158
vn 0.0328 0.9994 -0.0065
vn 0.0247 0.9996 -0.0146
vn 0.0247 0.9997 -0.0059
vn 0.0176 0.9998 -0.0130
vn 0.0176 0.9998 -0.0050
vn 0.0115 0.9999 -0.0111
vn 0.0115 0.9999 -0.0040
vn 0.0066 0.9999 -0.0089
vn 0.0066 1.0000 -0.0029
vn 0.0029 1.0000 -0.0066
vn 0.0029 1.0000 -0.0018
vn 0.0007 1.0000 -0.0040
vn 0.0007 1.0000 -0.0006
vn 0.0000 1.0000 -0.0013
vn 0.0000 1.0000 -0.0006
vn 0.0004 1.0000 -0.0002
vn 0.0004 1.0000 -0.0018
vn 0.0018 1.0000 -0.0004
vn 0.0018 1.0000 -0.0029
vn 0.0040 1.0000 -0.0007
vn 0.0070 1.0000 -0.0010
vn 0.0070 1.0000 -0.0050
vn 0.0107 0.9999 -0.0013
vn 0.0107 0.9999 -0.0059
vn 0.0151 0.9999 -0.0015
vn 0.0151 0.9999 -0.0065
vn 0.0200 0.9998 -0.0016
vn 0.0200 0.9998 -0.0071
vn 0.0253 0.9997 -0.0018
vn 0.0253 0.9997 -0.0075
vn 0.0309 0.9995 -0.0019
vn 0.0309 0.9995 -0.0076
vn 0.0366 0.9993 -0.0019
vn 0.0123 0.9999 0.0000
vn 0.0104 0.9999 -0.0019
vn 0.0104 0.9999 0.0000
vn 0.0085 1.0000 -0.0019
vn 0.0085 1.0000 0.0000
vn 0.0067 1.0000 -0.0018
vn 0.0067 1.0000 0.0000
vn 0.0051 1.0000 -0.0016
vn 0.0051 1.0000 0.0000
vn 0.0036 1.0000 -0.0015
vn 0.0036 1.0000 0.0000
vn 0.0023 1.0000 -0.0013
vn 0.0023 1.0000 0.0000
vn 0.0013 1.0000 -0.0010
vn 0.0013 1.0000 0.0000
vn 0.0006 1.0000 -0.0007
vn 0.0006 1.0000 0.0000
vn 0.0002 1.0000 -0.0004
vn 0.0002 1.0000 0.0000
vn 0.0000 1.0000 -0.0002
usemtl grass
s off
f 22/1/1 20/2/1 96/3/1
f 103/4/2 22/1/2 96/3/2
f 96/3/3 120/5/3 103/4/3
f 103/4/4 120/5/4 121/6/4
f 120/5/5 92/7/5 121/6/5
f 121/6/6 92/7/6 99/8/6
f 92/7/7 94/9/7 99/8/7
f 99/8/8 94/9/8 101/10/8
f 94/9/9 90/11/9 101/10/9
f 101/10/10 90/11/10 97/12/10
f 90/11/11 95/13/11 97/12/11
f 97/12/12 95/13/12 102/14/12
f 95/13/13 91/15/13 102/14/13
f 102/14/14 91/15/14 98/16/14
f 91/15/15 111/17/15 98/16/15
f 98/16/16 111/17/16 112/18/16
f 111/17/17 93/19/17 112/18/17
f 112/18/18 93/19/18 100/20/18
f 93/19/19 19/21/19 100/20/19
f 21/22/20 100/20/20 19/21/20
f 20/2/21 18/23/21 89/24/21
f 96/3/22 20/2/22 89/24/22
f 89/24/23 119/25/23 96/3/23
f 96/3/24 119/25/24 120/5/24
f 119/25/25 85/26/25 120/5/25
f 120/5/26 85/26/26 92/7/26
f 85/26/27 87/27/27 92/7/27
f 92/7/28 87/27/28 94/9/28
f 87/27/29 83/28/29 94/9/29
f 94/9/30 83/28/30 90/11/30
f 83/28/31 88/29/31 90/11/31
f 90/11/32 88/29/32 95/13/32
f 88/29/33 84/30/33 95/13/33
f 95/13/34 84/30/34 91/15/34
f 84/30/35 110/31/35 91/15/35
f 91/15/36 110/31/36 111/17/36
f 110/31/37 86/32/37 111/17/37
f 111/17/38 86/32/38 93/19/38
f 86/32/39 17/33/39 93/19/39
f 93/19/40 17/33/40 19/21/40
f 86/32/41 79/34/41 15/35/41
f 86/32/42 15/35/42 17/33/42
f 110/31/43 109/36/43 79/34/43
f 110/31/44 79/34/44 86/32/44
f 110/31/45 84/30/45 109/36/45
f 109/36/46 84/30/46 77/37/46
f 84/30/47 88/29/47 77/37/47
f 77/37/48 88/29/48 81/38/48
f 88/29/49 83/28/49 81/38/49
f 81/38/50 83/28/50 76/39/50
f 83/28/51 87/27/51 76/39/51
f 76/39/52 87/27/52 80/40/52
f 87/27/53 85/26/53 80/40/53
f 80/40/54 85/26/54 78/41/54
f 85/26/55 119/25/55 78/41/55
f 78/41/56 119/25/56 118/42/56
f 119/25/57 89/24/57 118/42/57
f 118/42/58 89/24/58 82/43/58
f 89/24/59 18/23/59 82/43/59
f 18/23/60 16/44/60 82/43/60
f 16/44/61 14/45/61 75/46/61
f 82/43/62 16/44/62 75/46/62
f 75/46/63 117/47/63 82/43/63
f 82/43/64 117/47/64 118/42/64
f 117/47/65 71/48/65 118/42/65
f 118/42/66 71/48/66 78/41/66
f 71/48/67 73/49/67 78/41/67
f 78/41/68 73/49/68 80/40/68
f 73/49/69 69/50/69 80/40/69
f 80/40/70 69/50/70 76/39/70
f 69/50/71 74/51/71 76/39/71
f 76/39/72 74/51/72 81/38/72
f 74/51/73 70/52/73 81/38/73
f 81/38/74 70/52/74 77/37/74
f 70/52/75 108/53/75 77/37/75
f 77/37/76 108/53/76 109/36/76
f 108/53/77 72/54/77 109/36/77
f 109/36/78 72/54/78 79/34/78
f 72/54/79 13/55/79 79/34/79
f 79/34/80 13/55/80 15/35/80
f 72/54/81 65/56/81 11/57/81
f 72/54/82 11/57/82 13/55/82
f 72/54/83 108/53/83 65/56/83
f 65/56/84 108/53/84 107/58/84
f 108/53/85 70/52/85 107/58/85
f 107/58/86 70/52/86 63/59/86
f 70/52/87 74/51/87 63/59/87
f 63/59/88 74/51/88 67/60/88
f 74/51/89 69/50/89 67/60/89
f 67/60/90 69/50/90 62/61/90
f 69/50/91 73/49/91 62/61/91
f 62/61/92 73/49/92 66/62/92
f 73/49/93 71/48/93 66/62/93
f 66/62/94 71/48/94 64/63/94
f 71/48/95 117/47/95 64/63/95
f 64/63/96 117/47/96 116/64/96
f 117/47/97 75/46/97 116/64/97
f 116/64/98 75/46/98 68/65/98
f 75/46/99 14/45/99 68/65/99
f 14/45/100 12/66/100 68/65/100
f 12/66/101 10/67/101 61/68/101
f 68/65/102 12/66/102 61/68/102
f 61/68/103 115/69/103 68/65/103
f 68/65/104 115/69/104 116/64/104
f 115/69/105 57/70/105 116/64/105
f 116/64/106 57/70/106 64/63/106
f 57/70/107 59/71/107 64/63/107
f 64/63/108 59/71/108 66/62/108
f 59/71/109 55/72/109 66/62/109
f 66/62/110 55/72/110 62/61/110
f 55/72/111 60/73/111 62/61/111
f 62/61/112 60/73/112 67/60/112
f 60/73/113 56/74/113 67/60/113
f 67/60/114 56/74/114 63/59/114
f 56/74/115 106/75/115 63/59/115
f 63/59/116 106/75/116 107/58/116
f 106/75/117 58/76/117 107/58/117
f 107/58/118 58/76/118 65/56/118
f 58/76/119 9/77/119 65/56/119
f 65/56/120 9/77/120 11/57/120
f 58/76/121 51/78/121 7/79/121
f 58/76/122 7/79/122 9/77/122
f 58/76/123 106/75/123 51/78/123
f 51/78/124 106/75/124 105/80/124
f 106/75/125 56/74/125 105/80/125
f 105/80/126 56/74/126 49/81/126
f 56/74/127 60/73/127 49/81/127
f 49/81/128 60/73/128 53/82/128
f 60/73/129 55/72/129 53/82/129
f 53/82/130 55/72/130 48/83/130
f 55/72/131 59/71/131 48/83/131
f 48/83/132 59/71/132 52/84/132
f 59/71/133 57/70/133 52/84/133
f 52/84/134 57/70/134 50/85/134
f 57/70/135 115/69/135 50/85/135
f 50/85/136 115/69/136 114/86/136
f 115/69/137 61/68/137 114/86/137
f 114/86/138 61/68/138 54/87/138
f 61/68/139 10/67/139 54/87/139
f 10/67/140 8/88/140 54/87/140
f 8/88/141 6/89/141 47/90/141
f 54/87/142 8/88/142 47/90/142
f 47/90/143 113/91/143 54/87/143
f 54/87/144 113/91/144 114/86/144
f 113/91/145 43/92/145 114/86/145
f 114/86/146 43/92/146 50/85/146
f 43/92/147 45/93/147 50/85/147
f 50/85/148 45/93/148 52/84/148
f 45/93/149 41/94/149 52/84/149
f 52/84/150 41/94/150 48/83/150
f 41/94/151 46/95/151 48/83/151
f 48/83/152 46/95/152 53/82/152
f 46/95/153 42/96/153 53/82/153
f 53/82/154 42/96/154 49/81/154
f 42/96/155 104/97/155 49/81/155
f 49/81/156 104/97/156 105/80/156
f 104/97/157 44/98/157 105/80/157
f 105/80/158 44/98/158 51/78/158
f 44/98/159 5/99/159 51/78/159
f 51/78/160 5/99/160 7/79/160
f 5/99/161 44/98/161 1/100/161
f 1/100/162 44/98/162 35/101/162
f 44/98/163 104/97/163 35/101/163
f 35/101/164 104/97/164 39/102/164
f 104/97/165 42/96/165 39/102/165
f 39/102/166 42/96/166 33/103/166
f 42/96/124 46/95/124 33/103/124
f 33/103/167 46/95/167 37/104/167
f 46/95/168 41/94/168 37/104/168
f 37/104/169 41/94/169 32/105/169
f 41/94/170 45/93/170 32/105/170
f 32/105/171 45/93/171 36/106/171
f 45/93/172 43/92/172 36/106/172
f 36/106/173 43/92/173 34/107/173
f 43/92/174 113/91/174 34/107/174
f 34/107/175 113/91/175 40/108/175
f 113/91/176 47/90/176 40/108/176
f 40/108/177 47/90/177 38/109/177
f 47/90/178 6/89/178 38/109/178
f 6/89/179 3/110/179 38/109/179
f 4/111/180 26/112/180 3/110/180
f 3/110/181 26/112/181 38/109/181
f 26/112/182 24/113/182 38/109/182
f 38/109/183 24/113/183 40/108/183
f 24/113/184 28/114/184 40/108/184
f 40/108/185 28/114/185 34/107/185
f 28/114/186 27/115/186 34/107/186
f 36/106/187 34/107/187 27/115/187
f 27/115/188 23/116/188 36/106/188
f 36/106/189 23/116/189 32/105/189
f 23/116/190 31/117/190 32/105/190
f 37/104/191 32/105/191 31/117/191
f 31/117/192 25/118/192 37/104/192
f 37/104/193 25/118/193 33/103/193
f 25/118/194 30/119/194 33/103/194
f 33/103/195 30/119/195 39/102/195
f 30/119/196 29/120/196 39/102/196
f 39/102/197 29/120/197 35/101/197
f 29/120/198 2/121/198 35/101/198
f 35/101/199 2/121/199 1/100/199
