# Blender v2.76 (sub 0) OBJ File: 'track_ramp.blend'
# www.blender.org
mtllib Assets/Track/track_ramp.mtl
o Grass.001_Plane.017
v 4.000000 0.012300 5.000000
v 5.000000 0.000000 5.000000
v 4.000000 0.012300 3.000000
v 5.000000 0.000000 3.000000
v 3.000000 0.049000 5.000000
v 3.000000 0.049000 3.000000
v 2.000000 0.109000 5.000000
v 2.000000 0.109000 3.000000
v 1.000000 0.190100 5.000000
v 1.000000 0.190100 3.000000
v 0.000000 0.292900 5.000000
v 0.000000 0.292900 3.000000
v -1.000000 0.412200 5.000000
v -1.000000 0.412200 3.000000
v -2.000000 0.546000 5.000000
v -2.000000 0.546000 3.000000
v -3.000000 0.691000 5.000000
v -3.000000 0.691000 3.000000
v -4.000000 0.843600 5.000000
v -4.000000 0.843600 3.000000
v -5.000000 1.000000 5.000000
v -5.000000 1.000000 3.000000
vt 0.999968 0.000032
vt 0.999968 0.099871
vt 0.900127 0.099871
vt 0.800270 0.099871
vt 0.800270 0.000032
vt 0.700397 0.099871
vt 0.700397 0.000032
vt 0.600458 0.099871
vt 0.500487 0.099872
vt 0.500487 0.000032
vt 0.400470 0.099872
vt 0.300407 0.099872
vt 0.300407 0.000032
vt 0.200306 0.099872
vt 0.200306 0.000032
vt 0.100176 0.099872
vt 0.100176 0.000032
vt 0.000032 0.099872
vt 0.000032 0.000032
vt 0.900127 0.000032
vt 0.600458 0.000032
vt 0.400470 0.000032
vn 0.012300 0.999900 0.000000
vn 0.036700 0.999300 0.000000
vn 0.059900 0.998200 0.000000
vn 0.080800 0.996700 0.000000
vn 0.102300 0.994800 0.000000
vn 0.118500 0.993000 0.000000
vn 0.132600 0.991200 0.000000
vn 0.143500 0.989700 0.000000
vn 0.150900 0.988600 0.000000
vn 0.154500 0.988000 0.000000
usemtl Material.001
s off
f 2/1/1 4/2/1 3/3/1
f 3/3/2 6/4/2 5/5/2
f 6/4/3 8/6/3 7/7/3
f 7/7/4 8/6/4 10/8/4
f 10/8/5 12/9/5 11/10/5
f 11/10/6 12/9/6 14/11/6
f 14/11/7 16/12/7 15/13/7
f 16/12/8 18/14/8 17/15/8
f 18/14/9 20/16/9 19/17/9
f 20/16/10 22/18/10 21/19/10
f 1/20/1 2/1/1 3/3/1
f 1/20/2 3/3/2 5/5/2
f 5/5/3 6/4/3 7/7/3
f 9/21/4 7/7/4 10/8/4
f 9/21/5 10/8/5 11/10/5
f 13/22/6 11/10/6 14/11/6
f 13/22/7 14/11/7 15/13/7
f 15/13/8 16/12/8 17/15/8
f 17/15/9 18/14/9 19/17/9
f 19/17/10 20/16/10 21/19/10
o Grass_Plane.015
v 4.000000 0.012300 -3.000000
v 5.000000 0.000000 -3.000000
v 4.000000 0.012300 -5.000000
v 5.000000 0.000000 -5.000000
v 3.000000 0.049000 -3.000000
v 3.000000 0.049000 -5.000000
v 2.000000 0.109000 -3.000000
v 2.000000 0.109000 -5.000000
v 1.000000 0.190100 -3.000000
v 1.000000 0.190100 -5.000000
v 0.000000 0.292900 -3.000000
v 0.000000 0.292900 -5.000000
v -1.000000 0.412200 -3.000000
v -1.000000 0.412200 -5.000000
v -2.000000 0.546000 -3.000000
v -2.000000 0.546000 -5.000000
v -3.000000 0.691000 -3.000000
v -3.000000 0.691000 -5.000000
v -4.000000 0.843600 -3.000000
v -4.000000 0.843600 -5.000000
v -5.000000 1.000000 -3.000000
v -5.000000 1.000000 -5.000000
vt 0.999968 0.000032
vt 0.999968 0.099871
vt 0.900127 0.099871
vt 0.800270 0.099871
vt 0.800270 0.000032
vt 0.700397 0.099871
vt 0.700397 0.000032
vt 0.600458 0.099871
vt 0.600458 0.000032
vt 0.500487 0.099872
vt 0.500487 0.000032
vt 0.400470 0.099872
vt 0.300407 0.099872
vt 0.300407 0.000032
vt 0.200306 0.099872
vt 0.200306 0.000032
vt 0.100176 0.099872
vt 0.000032 0.099872
vt 0.000032 0.000032
vt 0.900127 0.000032
vt 0.400470 0.000032
vt 0.100176 0.000032
vn 0.012300 0.999900 0.000000
vn 0.036700 0.999300 0.000000
vn 0.059900 0.998200 0.000000
vn 0.080800 0.996700 0.000000
vn 0.102300 0.994800 0.000000
vn 0.118500 0.993000 0.000000
vn 0.132600 0.991200 0.000000
vn 0.143500 0.989700 0.000000
vn 0.150900 0.988600 0.000000
vn 0.154500 0.988000 0.000000
usemtl Material.001
s off
f 24/23/11 26/24/11 25/25/11
f 25/25/12 28/26/12 27/27/12
f 28/26/13 30/28/13 29/29/13
f 30/28/14 32/30/14 31/31/14
f 32/30/15 34/32/15 33/33/15
f 33/33/16 34/32/16 36/34/16
f 36/34/17 38/35/17 37/36/17
f 38/35/18 40/37/18 39/38/18
f 39/38/19 40/37/19 42/39/19
f 42/39/20 44/40/20 43/41/20
f 23/42/11 24/23/11 25/25/11
f 23/42/12 25/25/12 27/27/12
f 27/27/13 28/26/13 29/29/13
f 29/29/14 30/28/14 31/31/14
f 31/31/15 32/30/15 33/33/15
f 35/43/16 33/33/16 36/34/16
f 35/43/17 36/34/17 37/36/17
f 37/36/18 38/35/18 39/38/18
f 41/44/19 39/38/19 42/39/19
f 41/44/20 42/39/20 43/41/20
o Road_Plane.002
v 4.000000 0.012300 3.000000
v 5.000000 0.000000 3.000000
v 4.000000 0.012300 -3.000000
v 5.000000 0.000000 -3.000000
v 3.000000 0.048900 3.000000
v 3.000000 0.048900 -3.000000
v 2.000000 0.109000 3.000000
v 2.000000 0.109000 -3.000000
v 1.000000 0.190100 3.000000
v 1.000000 0.190100 -3.000000
v 0.000000 0.292900 3.000000
v 0.000000 0.292900 -3.000000
v -1.000000 0.412200 3.000000
v -1.000000 0.412200 -3.000000
v -2.000000 0.546000 3.000000
v -2.000000 0.546000 -3.000000
v -3.000000 0.690100 3.000000
v -3.000000 0.690100 -3.000000
v -4.000000 0.843600 3.000000
v -4.000000 0.843600 -3.000000
v -5.000000 1.000000 3.000000
v -5.000000 1.000000 -3.000000
vt 1.000000 1.000000
vt 0.000002 1.000000
vt 0.000002 0.900219
vt 0.000001 0.800377
vt 1.000000 0.800377
vt 0.000001 0.700476
vt 1.000000 0.700476
vt 0.000001 0.600523
vt 0.999999 0.600523
vt 0.000001 0.500516
vt 0.999999 0.500516
vt 0.000001 0.400468
vt 0.999999 0.400468
vt 0.000001 0.300384
vt 0.999999 0.300384
vt 0.000000 0.200274
vt 0.999998 0.200274
vt 0.000000 0.100141
vt 0.999998 0.100141
vt 0.000000 0.000000
vt 0.999998 0.000000
vt 1.000000 0.900219
vn 0.012300 0.999900 0.000000
vn 0.036600 0.999300 0.000000
vn 0.060000 0.998200 0.000000
vn 0.080800 0.996700 0.000000
vn 0.102300 0.994800 0.000000
vn 0.118500 0.993000 0.000000
vn 0.132600 0.991200 0.000000
vn 0.142600 0.989800 0.000000
vn 0.151700 0.988400 0.000000
vn 0.154500 0.988000 0.000000
usemtl Material
s off
f 46/45/21 48/46/21 47/47/21
f 47/47/22 50/48/22 49/49/22
f 50/48/23 52/50/23 51/51/23
f 52/50/24 54/52/24 53/53/24
f 54/52/25 56/54/25 55/55/25
f 56/54/26 58/56/26 57/57/26
f 58/56/27 60/58/27 59/59/27
f 60/58/28 62/60/28 61/61/28
f 62/60/29 64/62/29 63/63/29
f 64/62/30 66/64/30 65/65/30
f 45/66/21 46/45/21 47/47/21
f 45/66/22 47/47/22 49/49/22
f 49/49/23 50/48/23 51/51/23
f 51/51/24 52/50/24 53/53/24
f 53/53/25 54/52/25 55/55/25
f 55/55/26 56/54/26 57/57/26
f 57/57/27 58/56/27 59/59/27
f 59/59/28 60/58/28 61/61/28
f 61/61/29 62/60/29 63/63/29
f 63/63/30 64/62/30 65/65/30
