# Blender v2.76 (sub 0) OBJ File: 'track_jump.blend'
# www.blender.org
mtllib Assets/Track/track_jump.mtl
o Plane_Plane.001
v -5.000000 2.001000 3.000000
v 5.000000 0.001000 3.000000
v -5.000000 2.001000 -3.000000
v 5.000000 0.001000 -3.000000
vt 0.999905 0.000095
vt 0.999905 0.894352
vt 0.000095 0.894352
vt 0.000095 0.000095
vn 0.099500 0.995000 0.000000
usemtl Material.002
s off
f 2/1/1 4/2/1 3/3/1
f 1/4/1 2/1/1 3/3/1
o Grass_Plane
v -5.000000 2.000000 5.000000
v 5.000000 0.000000 5.000000
v -5.000000 2.000000 -5.000000
v 5.000000 0.000000 -5.000000
vt 0.999905 0.000095
vt 0.999905 0.894352
vt 0.000095 0.894352
vt 0.000095 0.000095
vn 0.099500 0.995000 0.000000
usemtl grass
s off
f 6/5/2 8/6/2 7/7/2
f 5/8/2 6/5/2 7/7/2
