# Blender v2.76 (sub 0) OBJ File: 'track_finish.blend'
# www.blender.org
mtllib Assets/Track/track_finish.mtl
o road_Plane.001
v 8.000000 0.000000 -5.000000
v -10.000000 0.000000 -5.000000
v 8.000000 0.000000 5.000000
v -10.000000 0.000000 5.000000
vt 0.999900 0.000100
vt 0.999900 0.999900
vt 0.000100 0.999900
vt 0.000100 0.000100
vn 0.000000 1.000000 0.000000
usemtl road
s off
f 2/1/1 4/2/1 3/3/1
f 1/4/1 2/1/1 3/3/1
o Side2_Plane.005
v 10.000000 0.000000 8.000000
v -10.000000 0.000000 8.000000
v 10.000000 0.000000 5.000000
v -10.000000 0.000000 5.000000
vt 0.000055 0.300022
vt 0.000055 0.000055
vt 0.999945 0.000055
vt 0.999945 0.300022
vn 0.000000 1.000000 0.000000
usemtl grass
s off
f 5/5/2 7/6/2 8/7/2
f 6/8/2 5/5/2 8/7/2
o Pole2_Cylinder.002
v 9.000000 0.000000 5.250000
v 9.000000 6.000000 5.250000
v 8.951227 0.000000 5.245196
v 8.951227 6.000000 5.245196
v 8.904329 0.000000 5.230970
v 8.904329 6.000000 5.230970
v 8.861108 0.000000 5.207868
v 8.861108 6.000000 5.207868
v 8.823223 0.000000 5.176777
v 8.823223 6.000000 5.176777
v 8.792132 0.000000 5.138893
v 8.792132 6.000000 5.138893
v 8.769031 0.000000 5.095671
v 8.769031 6.000000 5.095671
v 8.754804 0.000000 5.048773
v 8.754804 6.000000 5.048773
v 8.750000 0.000000 5.000000
v 8.750000 6.000000 5.000000
v 8.754804 0.000000 4.951228
v 8.754804 6.000000 4.951228
v 8.769031 0.000000 4.904329
v 8.769031 6.000000 4.904329
v 8.792132 0.000000 4.861107
v 8.792132 6.000000 4.861107
v 8.823223 0.000000 4.823223
v 8.823223 6.000000 4.823223
v 8.861108 0.000000 4.792132
v 8.861108 6.000000 4.792132
v 8.904329 0.000000 4.769030
v 8.904329 6.000000 4.769030
v 8.951227 0.000000 4.754804
v 8.951227 6.000000 4.754804
v 9.000000 0.000000 4.750000
v 9.000000 6.000000 4.750000
v 9.048773 0.000000 4.754804
v 9.048773 6.000000 4.754804
v 9.095671 0.000000 4.769030
v 9.095671 6.000000 4.769030
v 9.138893 0.000000 4.792133
v 9.138893 6.000000 4.792133
v 9.176777 0.000000 4.823224
v 9.176777 6.000000 4.823224
v 9.207868 0.000000 4.861108
v 9.207868 6.000000 4.861108
v 9.230970 0.000000 4.904329
v 9.230970 6.000000 4.904329
v 9.245196 0.000000 4.951228
v 9.245196 6.000000 4.951228
v 9.250000 0.000000 5.000000
v 9.250000 6.000000 5.000000
v 9.245196 0.000000 5.048773
v 9.245196 6.000000 5.048773
v 9.230969 0.000000 5.095671
v 9.230969 6.000000 5.095671
v 9.207868 0.000000 5.138893
v 9.207868 6.000000 5.138893
v 9.176777 0.000000 5.176777
v 9.176777 6.000000 5.176777
v 9.138892 0.000000 5.207868
v 9.138892 6.000000 5.207868
v 9.095671 0.000000 5.230970
v 9.095671 6.000000 5.230970
v 9.048772 0.000000 5.245196
v 9.048772 6.000000 5.245196
vt 1.000000 0.000000
vt 1.000000 1.000000
vt 0.000000 1.000000
vt 0.597545 0.009607
vt 0.009607 0.402455
vt 0.990393 0.597545
vt 0.402456 0.990393
vt 0.000000 0.000000
vt 0.500000 1.000000
vt 0.597545 0.990393
vt 0.691342 0.961940
vt 0.777785 0.915735
vt 0.853553 0.853553
vt 0.915735 0.777785
vt 0.961940 0.691342
vt 1.000000 0.500000
vt 0.990393 0.402455
vt 0.961940 0.308658
vt 0.915735 0.222215
vt 0.853553 0.146447
vt 0.777785 0.084265
vt 0.691342 0.038060
vt 0.500000 0.000000
vt 0.402455 0.009607
vt 0.308658 0.038060
vt 0.222215 0.084265
vt 0.146446 0.146447
vt 0.084265 0.222215
vt 0.038060 0.308659
vt 0.000000 0.500000
vt 0.009607 0.597546
vt 0.038060 0.691342
vt 0.084266 0.777786
vt 0.146447 0.853554
vt 0.222215 0.915735
vt 0.308659 0.961940
vn -0.098000 0.000000 0.995200
vn -0.290300 0.000000 0.956900
vn -0.471400 0.000000 0.881900
vn -0.634400 0.000000 0.773000
vn -0.773000 0.000000 0.634400
vn -0.881900 0.000000 0.471400
vn -0.956900 0.000000 0.290300
vn -0.995200 0.000000 0.098000
vn -0.995200 0.000000 -0.098000
vn -0.956900 0.000000 -0.290300
vn -0.881900 0.000000 -0.471400
vn -0.773000 0.000000 -0.634400
vn -0.634400 0.000000 -0.773000
vn -0.471400 0.000000 -0.881900
vn -0.290300 0.000000 -0.956900
vn -0.098000 0.000000 -0.995200
vn 0.098000 0.000000 -0.995200
vn 0.290300 0.000000 -0.956900
vn 0.471400 0.000000 -0.881900
vn 0.634400 0.000000 -0.773000
vn 0.773000 0.000000 -0.634400
vn 0.881900 0.000000 -0.471400
vn 0.956900 0.000000 -0.290300
vn 0.995200 0.000000 -0.098000
vn 0.995200 0.000000 0.098000
vn 0.956900 0.000000 0.290300
vn 0.881900 0.000000 0.471400
vn 0.773000 0.000000 0.634400
vn 0.634400 0.000000 0.773000
vn 0.471400 0.000000 0.881900
vn 0.000000 1.000000 0.000000
vn 0.098000 0.000000 0.995200
vn 0.290300 0.000000 0.956900
vn 0.000000 -1.000000 0.000000
usemtl pole
s off
f 10/9/3 12/10/3 11/11/3
f 12/9/4 14/10/4 13/11/4
f 14/9/5 16/10/5 15/11/5
f 16/9/6 18/10/6 17/11/6
f 18/9/7 20/10/7 19/11/7
f 20/9/8 22/10/8 21/11/8
f 22/9/9 24/10/9 23/11/9
f 24/9/10 26/10/10 25/11/10
f 26/9/11 28/10/11 27/11/11
f 28/9/12 30/10/12 29/11/12
f 30/9/13 32/10/13 31/11/13
f 32/9/14 34/10/14 33/11/14
f 34/9/15 36/10/15 35/11/15
f 36/9/16 38/10/16 37/11/16
f 38/9/17 40/10/17 39/11/17
f 40/9/18 42/10/18 41/11/18
f 42/9/19 44/10/19 43/11/19
f 44/9/20 46/10/20 45/11/20
f 46/9/21 48/10/21 47/11/21
f 48/9/22 50/10/22 49/11/22
f 50/9/23 52/10/23 51/11/23
f 52/9/24 54/10/24 53/11/24
f 54/9/25 56/10/25 55/11/25
f 56/9/26 58/10/26 57/11/26
f 58/9/27 60/10/27 59/11/27
f 60/9/28 62/10/28 61/11/28
f 62/9/29 64/10/29 63/11/29
f 64/9/30 66/10/30 65/11/30
f 66/9/31 68/10/31 67/11/31
f 68/9/32 70/10/32 69/11/32
f 46/12/33 30/13/33 62/14/33
f 72/9/34 10/10/34 9/11/34
f 70/9/35 72/10/35 71/11/35
f 39/12/36 55/13/36 71/15/36
f 9/16/3 10/9/3 11/11/3
f 11/16/4 12/9/4 13/11/4
f 13/16/5 14/9/5 15/11/5
f 15/16/6 16/9/6 17/11/6
f 17/16/7 18/9/7 19/11/7
f 19/16/8 20/9/8 21/11/8
f 21/16/9 22/9/9 23/11/9
f 23/16/10 24/9/10 25/11/10
f 25/16/11 26/9/11 27/11/11
f 27/16/12 28/9/12 29/11/12
f 29/16/13 30/9/13 31/11/13
f 31/16/14 32/9/14 33/11/14
f 33/16/15 34/9/15 35/11/15
f 35/16/16 36/9/16 37/11/16
f 37/16/17 38/9/17 39/11/17
f 39/16/18 40/9/18 41/11/18
f 41/16/19 42/9/19 43/11/19
f 43/16/20 44/9/20 45/11/20
f 45/16/21 46/9/21 47/11/21
f 47/16/22 48/9/22 49/11/22
f 49/16/23 50/9/23 51/11/23
f 51/16/24 52/9/24 53/11/24
f 53/16/25 54/9/25 55/11/25
f 55/16/26 56/9/26 57/11/26
f 57/16/27 58/9/27 59/11/27
f 59/16/28 60/9/28 61/11/28
f 61/16/29 62/9/29 63/11/29
f 63/16/30 64/9/30 65/11/30
f 65/16/31 66/9/31 67/11/31
f 67/16/32 68/9/32 69/11/32
f 14/15/33 12/17/33 10/18/33
f 10/18/33 72/19/33 14/15/33
f 70/20/33 68/21/33 62/14/33
f 66/22/33 64/23/33 62/14/33
f 62/14/33 60/24/33 58/25/33
f 58/25/33 56/26/33 62/14/33
f 54/27/33 52/28/33 50/29/33
f 50/29/33 48/30/33 46/12/33
f 46/12/33 44/31/33 42/32/33
f 42/32/33 40/33/33 38/34/33
f 38/34/33 36/35/33 30/13/33
f 34/36/33 32/37/33 30/13/33
f 30/13/33 28/38/33 26/39/33
f 26/39/33 24/40/33 22/41/33
f 22/41/33 20/42/33 18/43/33
f 18/43/33 16/44/33 22/41/33
f 14/15/33 72/19/33 70/20/33
f 68/21/33 66/22/33 62/14/33
f 62/14/33 56/26/33 50/29/33
f 54/27/33 50/29/33 56/26/33
f 46/12/33 42/32/33 30/13/33
f 36/35/33 34/36/33 30/13/33
f 30/13/33 26/39/33 22/41/33
f 22/41/33 16/44/33 14/15/33
f 14/15/33 70/20/33 62/14/33
f 62/14/33 50/29/33 46/12/33
f 42/32/33 38/34/33 30/13/33
f 30/13/33 22/41/33 14/15/33
f 14/15/33 62/14/33 30/13/33
f 71/16/34 72/9/34 9/11/34
f 69/16/35 70/9/35 71/11/35
f 71/15/36 9/17/36 11/18/36
f 11/18/36 13/19/36 71/15/36
f 15/20/36 17/21/36 19/22/36
f 19/22/36 21/23/36 15/20/36
f 23/14/36 25/24/36 27/25/36
f 27/25/36 29/26/36 23/14/36
f 31/27/36 33/28/36 35/29/36
f 35/29/36 37/30/36 39/12/36
f 39/12/36 41/31/36 43/32/36
f 43/32/36 45/33/36 39/12/36
f 47/34/36 49/35/36 51/36/36
f 51/36/36 53/37/36 55/13/36
f 55/13/36 57/38/36 59/39/36
f 59/39/36 61/40/36 55/13/36
f 63/41/36 65/42/36 67/43/36
f 67/43/36 69/44/36 71/15/36
f 71/15/36 13/19/36 15/20/36
f 15/20/36 21/23/36 71/15/36
f 23/14/36 29/26/36 21/23/36
f 31/27/36 35/29/36 29/26/36
f 39/12/36 45/33/36 47/34/36
f 47/34/36 51/36/36 39/12/36
f 55/13/36 61/40/36 71/15/36
f 63/41/36 67/43/36 71/15/36
f 71/15/36 21/23/36 29/26/36
f 29/26/36 35/29/36 39/12/36
f 39/12/36 51/36/36 55/13/36
f 61/40/36 63/41/36 71/15/36
f 71/15/36 29/26/36 39/12/36
o Side1_Plane.003
v 10.000000 0.000000 -5.000000
v -10.000000 0.000000 -5.000000
v 10.000000 0.000000 -8.000000
v -10.000000 0.000000 -8.000000
vt 0.000055 0.300022
vt 0.000055 0.000055
vt 0.999945 0.000055
vt 0.999945 0.300022
vn 0.000000 1.000000 0.000000
usemtl grass
s off
f 73/45/37 75/46/37 76/47/37
f 74/48/37 73/45/37 76/47/37
o Flag_Plane.002
v 9.000000 6.000000 -5.000000
v 9.000000 4.000000 -5.000000
v 9.000000 6.000000 5.000000
v 9.000000 4.000000 5.000000
vt 0.999900 0.000100
vt 0.999900 2.000000
vt 0.000100 2.000000
vt 0.000100 0.000100
vn -1.000000 0.000000 0.000000
usemtl flag
s off
f 78/49/38 80/50/38 79/51/38
f 77/52/38 78/49/38 79/51/38
o Pole1_Cylinder
v 9.000000 0.000000 -4.750000
v 9.000000 6.000000 -4.750000
v 8.951227 0.000000 -4.754804
v 8.951227 6.000000 -4.754804
v 8.904329 0.000000 -4.769030
v 8.904329 6.000000 -4.769030
v 8.861108 0.000000 -4.792132
v 8.861108 6.000000 -4.792132
v 8.823223 0.000000 -4.823223
v 8.823223 6.000000 -4.823223
v 8.792132 0.000000 -4.861107
v 8.792132 6.000000 -4.861107
v 8.769031 0.000000 -4.904329
v 8.769031 6.000000 -4.904329
v 8.754804 0.000000 -4.951227
v 8.754804 6.000000 -4.951227
v 8.750000 0.000000 -5.000000
v 8.750000 6.000000 -5.000000
v 8.754804 0.000000 -5.048772
v 8.754804 6.000000 -5.048772
v 8.769031 0.000000 -5.095671
v 8.769031 6.000000 -5.095671
v 8.792132 0.000000 -5.138893
v 8.792132 6.000000 -5.138893
v 8.823223 0.000000 -5.176777
v 8.823223 6.000000 -5.176777
v 8.861108 0.000000 -5.207868
v 8.861108 6.000000 -5.207868
v 8.904329 0.000000 -5.230970
v 8.904329 6.000000 -5.230970
v 8.951227 0.000000 -5.245196
v 8.951227 6.000000 -5.245196
v 9.000000 0.000000 -5.250000
v 9.000000 6.000000 -5.250000
v 9.048773 0.000000 -5.245196
v 9.048773 6.000000 -5.245196
v 9.095671 0.000000 -5.230970
v 9.095671 6.000000 -5.230970
v 9.138893 0.000000 -5.207867
v 9.138893 6.000000 -5.207867
v 9.176777 0.000000 -5.176776
v 9.176777 6.000000 -5.176776
v 9.207868 0.000000 -5.138892
v 9.207868 6.000000 -5.138892
v 9.230970 0.000000 -5.095671
v 9.230970 6.000000 -5.095671
v 9.245196 0.000000 -5.048772
v 9.245196 6.000000 -5.048772
v 9.250000 0.000000 -5.000000
v 9.250000 6.000000 -5.000000
v 9.245196 0.000000 -4.951227
v 9.245196 6.000000 -4.951227
v 9.230969 0.000000 -4.904329
v 9.230969 6.000000 -4.904329
v 9.207868 0.000000 -4.861107
v 9.207868 6.000000 -4.861107
v 9.176777 0.000000 -4.823223
v 9.176777 6.000000 -4.823223
v 9.138892 0.000000 -4.792132
v 9.138892 6.000000 -4.792132
v 9.095671 0.000000 -4.769030
v 9.095671 6.000000 -4.769030
v 9.048772 0.000000 -4.754804
v 9.048772 6.000000 -4.754804
vt 1.000000 0.000000
vt 1.000000 1.000000
vt 0.000000 1.000000
vt 0.597545 0.009607
vt 0.009607 0.402455
vt 0.990393 0.597545
vt 0.402456 0.990393
vt 0.000000 0.000000
vt 0.500000 1.000000
vt 0.597545 0.990393
vt 0.691342 0.961940
vt 0.777785 0.915735
vt 0.853553 0.853553
vt 0.915735 0.777785
vt 0.961940 0.691342
vt 1.000000 0.500000
vt 0.990393 0.402455
vt 0.961940 0.308658
vt 0.915735 0.222215
vt 0.853553 0.146447
vt 0.777785 0.084265
vt 0.691342 0.038060
vt 0.500000 0.000000
vt 0.402455 0.009607
vt 0.308658 0.038060
vt 0.222215 0.084265
vt 0.146446 0.146447
vt 0.084265 0.222215
vt 0.038060 0.308659
vt 0.000000 0.500000
vt 0.009607 0.597546
vt 0.038060 0.691342
vt 0.084266 0.777786
vt 0.146447 0.853554
vt 0.222215 0.915735
vt 0.308659 0.961940
vn -0.098000 0.000000 0.995200
vn -0.290300 0.000000 0.956900
vn -0.471400 0.000000 0.881900
vn -0.634400 0.000000 0.773000
vn -0.773000 0.000000 0.634400
vn -0.881900 0.000000 0.471400
vn -0.956900 0.000000 0.290300
vn -0.995200 0.000000 0.098000
vn -0.995200 0.000000 -0.098000
vn -0.956900 0.000000 -0.290300
vn -0.881900 0.000000 -0.471400
vn -0.773000 0.000000 -0.634400
vn -0.634400 0.000000 -0.773000
vn -0.471400 0.000000 -0.881900
vn -0.290300 0.000000 -0.956900
vn -0.098000 0.000000 -0.995200
vn 0.098000 0.000000 -0.995200
vn 0.290300 0.000000 -0.956900
vn 0.471400 0.000000 -0.881900
vn 0.634400 0.000000 -0.773000
vn 0.773000 0.000000 -0.634400
vn 0.881900 0.000000 -0.471400
vn 0.956900 0.000000 -0.290300
vn 0.995200 0.000000 -0.098000
vn 0.995200 0.000000 0.098000
vn 0.956900 0.000000 0.290300
vn 0.881900 0.000000 0.471400
vn 0.773000 0.000000 0.634400
vn 0.634400 0.000000 0.773000
vn 0.471400 0.000000 0.881900
vn 0.000000 1.000000 0.000000
vn 0.098000 0.000000 0.995200
vn 0.290300 0.000000 0.956900
vn 0.000000 -1.000000 0.000000
usemtl pole
s off
f 82/53/39 84/54/39 83/55/39
f 84/53/40 86/54/40 85/55/40
f 86/53/41 88/54/41 87/55/41
f 88/53/42 90/54/42 89/55/42
f 90/53/43 92/54/43 91/55/43
f 92/53/44 94/54/44 93/55/44
f 94/53/45 96/54/45 95/55/45
f 96/53/46 98/54/46 97/55/46
f 98/53/47 100/54/47 99/55/47
f 100/53/48 102/54/48 101/55/48
f 102/53/49 104/54/49 103/55/49
f 104/53/50 106/54/50 105/55/50
f 106/53/51 108/54/51 107/55/51
f 108/53/52 110/54/52 109/55/52
f 110/53/53 112/54/53 111/55/53
f 112/53/54 114/54/54 113/55/54
f 114/53/55 116/54/55 115/55/55
f 116/53/56 118/54/56 117/55/56
f 118/53/57 120/54/57 119/55/57
f 120/53/58 122/54/58 121/55/58
f 122/53/59 124/54/59 123/55/59
f 124/53/60 126/54/60 125/55/60
f 126/53/61 128/54/61 127/55/61
f 128/53/62 130/54/62 129/55/62
f 130/53/63 132/54/63 131/55/63
f 132/53/64 134/54/64 133/55/64
f 134/53/65 136/54/65 135/55/65
f 136/53/66 138/54/66 137/55/66
f 138/53/67 140/54/67 139/55/67
f 140/53/68 142/54/68 141/55/68
f 118/56/69 102/57/69 134/58/69
f 144/53/70 82/54/70 81/55/70
f 142/53/71 144/54/71 143/55/71
f 111/56/72 127/57/72 143/59/72
f 81/60/39 82/53/39 83/55/39
f 83/60/40 84/53/40 85/55/40
f 85/60/41 86/53/41 87/55/41
f 87/60/42 88/53/42 89/55/42
f 89/60/43 90/53/43 91/55/43
f 91/60/44 92/53/44 93/55/44
f 93/60/45 94/53/45 95/55/45
f 95/60/46 96/53/46 97/55/46
f 97/60/47 98/53/47 99/55/47
f 99/60/48 100/53/48 101/55/48
f 101/60/49 102/53/49 103/55/49
f 103/60/50 104/53/50 105/55/50
f 105/60/51 106/53/51 107/55/51
f 107/60/52 108/53/52 109/55/52
f 109/60/53 110/53/53 111/55/53
f 111/60/54 112/53/54 113/55/54
f 113/60/55 114/53/55 115/55/55
f 115/60/56 116/53/56 117/55/56
f 117/60/57 118/53/57 119/55/57
f 119/60/58 120/53/58 121/55/58
f 121/60/59 122/53/59 123/55/59
f 123/60/60 124/53/60 125/55/60
f 125/60/61 126/53/61 127/55/61
f 127/60/62 128/53/62 129/55/62
f 129/60/63 130/53/63 131/55/63
f 131/60/64 132/53/64 133/55/64
f 133/60/65 134/53/65 135/55/65
f 135/60/66 136/53/66 137/55/66
f 137/60/67 138/53/67 139/55/67
f 139/60/68 140/53/68 141/55/68
f 86/59/69 84/61/69 82/62/69
f 82/62/69 144/63/69 86/59/69
f 142/64/69 140/65/69 134/58/69
f 138/66/69 136/67/69 134/58/69
f 134/58/69 132/68/69 130/69/69
f 130/69/69 128/70/69 134/58/69
f 126/71/69 124/72/69 122/73/69
f 122/73/69 120/74/69 118/56/69
f 118/56/69 116/75/69 114/76/69
f 114/76/69 112/77/69 110/78/69
f 110/78/69 108/79/69 102/57/69
f 106/80/69 104/81/69 102/57/69
f 102/57/69 100/82/69 98/83/69
f 98/83/69 96/84/69 94/85/69
f 94/85/69 92/86/69 90/87/69
f 90/87/69 88/88/69 94/85/69
f 86/59/69 144/63/69 142/64/69
f 140/65/69 138/66/69 134/58/69
f 134/58/69 128/70/69 122/73/69
f 126/71/69 122/73/69 128/70/69
f 118/56/69 114/76/69 102/57/69
f 108/79/69 106/80/69 102/57/69
f 102/57/69 98/83/69 94/85/69
f 94/85/69 88/88/69 86/59/69
f 86/59/69 142/64/69 134/58/69
f 134/58/69 122/73/69 118/56/69
f 114/76/69 110/78/69 102/57/69
f 102/57/69 94/85/69 86/59/69
f 86/59/69 134/58/69 102/57/69
f 143/60/70 144/53/70 81/55/70
f 141/60/71 142/53/71 143/55/71
f 143/59/72 81/61/72 83/62/72
f 83/62/72 85/63/72 143/59/72
f 87/64/72 89/65/72 91/66/72
f 91/66/72 93/67/72 87/64/72
f 95/58/72 97/68/72 99/69/72
f 99/69/72 101/70/72 95/58/72
f 103/71/72 105/72/72 107/73/72
f 107/73/72 109/74/72 111/56/72
f 111/56/72 113/75/72 115/76/72
f 115/76/72 117/77/72 111/56/72
f 119/78/72 121/79/72 123/80/72
f 123/80/72 125/81/72 127/57/72
f 127/57/72 129/82/72 131/83/72
f 131/83/72 133/84/72 127/57/72
f 135/85/72 137/86/72 139/87/72
f 139/87/72 141/88/72 143/59/72
f 143/59/72 85/63/72 87/64/72
f 87/64/72 93/67/72 143/59/72
f 95/58/72 101/70/72 93/67/72
f 103/71/72 107/73/72 101/70/72
f 111/56/72 117/77/72 119/78/72
f 119/78/72 123/80/72 111/56/72
f 127/57/72 133/84/72 143/59/72
f 135/85/72 139/87/72 143/59/72
f 143/59/72 93/67/72 101/70/72
f 101/70/72 107/73/72 111/56/72
f 111/56/72 123/80/72 127/57/72
f 133/84/72 135/85/72 143/59/72
f 143/59/72 101/70/72 111/56/72
o finish_Plane
v 10.000000 0.000000 -5.000000
v 8.000000 0.000000 -5.000000
v 10.000000 0.000000 5.000000
v 8.000000 0.000000 5.000000
vt 0.999900 0.000100
vt 1.000000 2.000000
vt 0.000000 2.000000
vt 0.000000 0.000000
vn 0.000000 1.000000 0.000000
usemtl finish
s off
f 146/89/73 148/90/73 147/91/73
f 145/92/73 146/89/73 147/91/73
