# Blender v2.76 (sub 0) OBJ File: 'track_finish.blend'
# www.blender.org
mtllib Assets/Track/track_finish.mtl
o Grass_Plane
v -5.000000 0.000000 5.000000
v 5.000000 0.000000 5.000000
v -5.000000 0.000000 -5.000000
v 5.000000 0.000000 -5.000000
vt 0.999900 0.000100
vt 0.999900 0.999900
vt 0.000100 0.999900
vt 0.000100 0.000100
vn 0.000000 1.000000 0.000000
usemtl grass
s off
f 2/1/1 4/2/1 3/3/1
f 1/4/1 2/1/1 3/3/1
o flag_Plane.011
v -4.500000 5.000000 4.000000
v -4.500000 3.000000 4.000000
v -4.500000 5.000000 -4.000000
v -4.500000 3.000000 -4.000000
vt 0.000000 0.000000
vt 2.000000 0.000000
vt 2.000000 1.000000
vt 0.000000 1.000000
vn 1.000000 0.000000 0.000000
usemtl flag
s off
f 6/5/2 8/6/2 7/7/2
f 5/8/2 6/5/2 7/7/2
o pole2_Cylinder.003
v -4.500000 0.000000 3.750000
v -4.500000 5.000000 3.750000
v -4.451227 0.000000 3.754804
v -4.451227 5.000000 3.754804
v -4.404329 0.000000 3.769030
v -4.404329 5.000000 3.769030
v -4.361107 0.000000 3.792133
v -4.361107 5.000000 3.792133
v -4.323223 0.000000 3.823223
v -4.323223 5.000000 3.823223
v -4.292132 0.000000 3.861107
v -4.292132 5.000000 3.861107
v -4.269030 0.000000 3.904329
v -4.269030 5.000000 3.904329
v -4.254804 0.000000 3.951227
v -4.254804 5.000000 3.951227
v -4.250000 0.000000 4.000000
v -4.250000 5.000000 4.000000
v -4.254804 0.000000 4.048772
v -4.254804 5.000000 4.048772
v -4.269030 0.000000 4.095671
v -4.269030 5.000000 4.095671
v -4.292132 0.000000 4.138893
v -4.292132 5.000000 4.138893
v -4.323223 0.000000 4.176777
v -4.323223 5.000000 4.176777
v -4.361107 0.000000 4.207868
v -4.361107 5.000000 4.207868
v -4.404329 0.000000 4.230970
v -4.404329 5.000000 4.230970
v -4.451228 0.000000 4.245196
v -4.451228 5.000000 4.245196
v -4.500000 0.000000 4.250000
v -4.500000 5.000000 4.250000
v -4.548773 0.000000 4.245196
v -4.548773 5.000000 4.245196
v -4.595671 0.000000 4.230970
v -4.595671 5.000000 4.230970
v -4.638893 0.000000 4.207867
v -4.638893 5.000000 4.207867
v -4.676777 0.000000 4.176776
v -4.676777 5.000000 4.176776
v -4.707868 0.000000 4.138892
v -4.707868 5.000000 4.138892
v -4.730970 0.000000 4.095671
v -4.730970 5.000000 4.095671
v -4.745196 0.000000 4.048772
v -4.745196 5.000000 4.048772
v -4.750000 0.000000 4.000000
v -4.750000 5.000000 4.000000
v -4.745196 0.000000 3.951227
v -4.745196 5.000000 3.951227
v -4.730970 0.000000 3.904329
v -4.730970 5.000000 3.904329
v -4.707867 0.000000 3.861107
v -4.707867 5.000000 3.861107
v -4.676776 0.000000 3.823223
v -4.676776 5.000000 3.823223
v -4.638892 0.000000 3.792132
v -4.638892 5.000000 3.792132
v -4.595671 0.000000 3.769030
v -4.595671 5.000000 3.769030
v -4.548772 0.000000 3.754804
v -4.548772 5.000000 3.754804
vt 1.000000 0.000000
vt 1.000000 1.000000
vt 0.000000 1.000000
vt 0.222215 0.084265
vt 0.009607 0.402455
vt 0.402456 0.990393
vt 0.000000 0.000000
vt 0.500000 1.000000
vt 0.597545 0.990393
vt 0.691342 0.961940
vt 0.777785 0.915735
vt 0.853553 0.853553
vt 0.915735 0.777785
vt 0.961940 0.691342
vt 0.990393 0.597545
vt 1.000000 0.500000
vt 0.990393 0.402455
vt 0.961940 0.308658
vt 0.915735 0.222215
vt 0.853553 0.146447
vt 0.777785 0.084265
vt 0.691342 0.038060
vt 0.597545 0.009607
vt 0.500000 0.000000
vt 0.402455 0.009607
vt 0.308658 0.038060
vt 0.146446 0.146447
vt 0.084265 0.222215
vt 0.038060 0.308659
vt 0.000000 0.500000
vt 0.009607 0.597546
vt 0.038060 0.691342
vt 0.084266 0.777786
vt 0.146447 0.853554
vt 0.222215 0.915735
vt 0.308659 0.961940
vn 0.098000 0.000000 -0.995200
vn 0.290300 0.000000 -0.956900
vn 0.471400 0.000000 -0.881900
vn 0.634400 0.000000 -0.773000
vn 0.773000 0.000000 -0.634400
vn 0.881900 0.000000 -0.471400
vn 0.956900 0.000000 -0.290300
vn 0.995200 0.000000 -0.098000
vn 0.995200 0.000000 0.098000
vn 0.956900 0.000000 0.290300
vn 0.881900 0.000000 0.471400
vn 0.773000 0.000000 0.634400
vn 0.634400 0.000000 0.773000
vn 0.471400 0.000000 0.881900
vn 0.290300 0.000000 0.956900
vn 0.098000 0.000000 0.995200
vn -0.098000 0.000000 0.995200
vn -0.290300 0.000000 0.956900
vn -0.471400 0.000000 0.881900
vn -0.634400 0.000000 0.773000
vn -0.773000 0.000000 0.634400
vn -0.881900 0.000000 0.471400
vn -0.956900 0.000000 0.290300
vn -0.995200 0.000000 0.098000
vn -0.995200 0.000000 -0.098000
vn -0.956900 0.000000 -0.290300
vn -0.881900 0.000000 -0.471400
vn -0.773000 0.000000 -0.634400
vn -0.634400 0.000000 -0.773000
vn -0.471400 0.000000 -0.881900
vn 0.000000 1.000000 0.000000
vn -0.098000 0.000000 -0.995200
vn -0.290300 0.000000 -0.956900
vn 0.000000 -1.000000 0.000000
usemtl pole
s off
f 10/9/3 12/10/3 11/11/3
f 12/9/4 14/10/4 13/11/4
f 14/9/5 16/10/5 15/11/5
f 16/9/6 18/10/6 17/11/6
f 18/9/7 20/10/7 19/11/7
f 20/9/8 22/10/8 21/11/8
f 22/9/9 24/10/9 23/11/9
f 24/9/10 26/10/10 25/11/10
f 26/9/11 28/10/11 27/11/11
f 28/9/12 30/10/12 29/11/12
f 30/9/13 32/10/13 31/11/13
f 32/9/14 34/10/14 33/11/14
f 34/9/15 36/10/15 35/11/15
f 36/9/16 38/10/16 37/11/16
f 38/9/17 40/10/17 39/11/17
f 40/9/18 42/10/18 41/11/18
f 42/9/19 44/10/19 43/11/19
f 44/9/20 46/10/20 45/11/20
f 46/9/21 48/10/21 47/11/21
f 48/9/22 50/10/22 49/11/22
f 50/9/23 52/10/23 51/11/23
f 52/9/24 54/10/24 53/11/24
f 54/9/25 56/10/25 55/11/25
f 56/9/26 58/10/26 57/11/26
f 58/9/27 60/10/27 59/11/27
f 60/9/28 62/10/28 61/11/28
f 62/9/29 64/10/29 63/11/29
f 64/9/30 66/10/30 65/11/30
f 66/9/31 68/10/31 67/11/31
f 68/9/32 70/10/32 69/11/32
f 38/12/33 30/13/33 14/14/33
f 72/9/34 10/10/34 9/11/34
f 70/9/35 72/10/35 71/11/35
f 47/12/36 55/13/36 71/14/36
f 9/15/3 10/9/3 11/11/3
f 11/15/4 12/9/4 13/11/4
f 13/15/5 14/9/5 15/11/5
f 15/15/6 16/9/6 17/11/6
f 17/15/7 18/9/7 19/11/7
f 19/15/8 20/9/8 21/11/8
f 21/15/9 22/9/9 23/11/9
f 23/15/10 24/9/10 25/11/10
f 25/15/11 26/9/11 27/11/11
f 27/15/12 28/9/12 29/11/12
f 29/15/13 30/9/13 31/11/13
f 31/15/14 32/9/14 33/11/14
f 33/15/15 34/9/15 35/11/15
f 35/15/16 36/9/16 37/11/16
f 37/15/17 38/9/17 39/11/17
f 39/15/18 40/9/18 41/11/18
f 41/15/19 42/9/19 43/11/19
f 43/15/20 44/9/20 45/11/20
f 45/15/21 46/9/21 47/11/21
f 47/15/22 48/9/22 49/11/22
f 49/15/23 50/9/23 51/11/23
f 51/15/24 52/9/24 53/11/24
f 53/15/25 54/9/25 55/11/25
f 55/15/26 56/9/26 57/11/26
f 57/15/27 58/9/27 59/11/27
f 59/15/28 60/9/28 61/11/28
f 61/15/29 62/9/29 63/11/29
f 63/15/30 64/9/30 65/11/30
f 65/15/31 66/9/31 67/11/31
f 67/15/32 68/9/32 69/11/32
f 14/14/33 12/16/33 10/17/33
f 10/17/33 72/18/33 14/14/33
f 70/19/33 68/20/33 66/21/33
f 66/21/33 64/22/33 62/23/33
f 62/23/33 60/24/33 58/25/33
f 58/25/33 56/26/33 54/27/33
f 54/27/33 52/28/33 50/29/33
f 50/29/33 48/30/33 54/27/33
f 46/31/33 44/32/33 42/33/33
f 42/33/33 40/34/33 38/12/33
f 38/12/33 36/35/33 34/36/33
f 34/36/33 32/37/33 30/13/33
f 30/13/33 28/38/33 26/39/33
f 26/39/33 24/40/33 22/41/33
f 22/41/33 20/42/33 18/43/33
f 18/43/33 16/44/33 22/41/33
f 14/14/33 72/18/33 70/19/33
f 70/19/33 66/21/33 14/14/33
f 62/23/33 58/25/33 54/27/33
f 54/27/33 48/30/33 46/31/33
f 46/31/33 42/33/33 38/12/33
f 38/12/33 34/36/33 30/13/33
f 30/13/33 26/39/33 14/14/33
f 22/41/33 16/44/33 14/14/33
f 14/14/33 66/21/33 62/23/33
f 62/23/33 54/27/33 14/14/33
f 46/31/33 38/12/33 14/14/33
f 26/39/33 22/41/33 14/14/33
f 14/14/33 54/27/33 46/31/33
f 71/15/34 72/9/34 9/11/34
f 69/15/35 70/9/35 71/11/35
f 71/14/36 9/16/36 11/17/36
f 11/17/36 13/18/36 71/14/36
f 15/19/36 17/20/36 19/21/36
f 19/21/36 21/22/36 15/19/36
f 23/23/36 25/24/36 27/25/36
f 27/25/36 29/26/36 31/27/36
f 31/27/36 33/28/36 35/29/36
f 35/29/36 37/30/36 31/27/36
f 39/31/36 41/32/36 47/12/36
f 43/33/36 45/34/36 47/12/36
f 47/12/36 49/35/36 51/36/36
f 51/36/36 53/37/36 47/12/36
f 55/13/36 57/38/36 63/41/36
f 59/39/36 61/40/36 63/41/36
f 63/41/36 65/42/36 71/14/36
f 67/43/36 69/44/36 71/14/36
f 71/14/36 13/18/36 15/19/36
f 15/19/36 21/22/36 23/23/36
f 23/23/36 27/25/36 39/31/36
f 31/27/36 37/30/36 39/31/36
f 41/32/36 43/33/36 47/12/36
f 47/12/36 53/37/36 55/13/36
f 57/38/36 59/39/36 63/41/36
f 65/42/36 67/43/36 71/14/36
f 71/14/36 15/19/36 23/23/36
f 27/25/36 31/27/36 39/31/36
f 39/31/36 47/12/36 71/14/36
f 55/13/36 63/41/36 71/14/36
f 71/14/36 23/23/36 39/31/36
o pole1_Cylinder.001
v -4.500000 0.000000 -4.250000
v -4.500000 5.000000 -4.250000
v -4.451227 0.000000 -4.245196
v -4.451227 5.000000 -4.245196
v -4.404329 0.000000 -4.230970
v -4.404329 5.000000 -4.230970
v -4.361107 0.000000 -4.207868
v -4.361107 5.000000 -4.207868
v -4.323223 0.000000 -4.176777
v -4.323223 5.000000 -4.176777
v -4.292132 0.000000 -4.138893
v -4.292132 5.000000 -4.138893
v -4.269030 0.000000 -4.095671
v -4.269030 5.000000 -4.095671
v -4.254804 0.000000 -4.048773
v -4.254804 5.000000 -4.048773
v -4.250000 0.000000 -4.000000
v -4.250000 5.000000 -4.000000
v -4.254804 0.000000 -3.951227
v -4.254804 5.000000 -3.951227
v -4.269030 0.000000 -3.904329
v -4.269030 5.000000 -3.904329
v -4.292132 0.000000 -3.861107
v -4.292132 5.000000 -3.861107
v -4.323223 0.000000 -3.823223
v -4.323223 5.000000 -3.823223
v -4.361107 0.000000 -3.792133
v -4.361107 5.000000 -3.792133
v -4.404329 0.000000 -3.769030
v -4.404329 5.000000 -3.769030
v -4.451228 0.000000 -3.754804
v -4.451228 5.000000 -3.754804
v -4.500000 0.000000 -3.750000
v -4.500000 5.000000 -3.750000
v -4.548773 0.000000 -3.754804
v -4.548773 5.000000 -3.754804
v -4.595671 0.000000 -3.769030
v -4.595671 5.000000 -3.769030
v -4.638893 0.000000 -3.792133
v -4.638893 5.000000 -3.792133
v -4.676777 0.000000 -3.823223
v -4.676777 5.000000 -3.823223
v -4.707868 0.000000 -3.861108
v -4.707868 5.000000 -3.861108
v -4.730970 0.000000 -3.904329
v -4.730970 5.000000 -3.904329
v -4.745196 0.000000 -3.951228
v -4.745196 5.000000 -3.951228
v -4.750000 0.000000 -4.000000
v -4.750000 5.000000 -4.000000
v -4.745196 0.000000 -4.048773
v -4.745196 5.000000 -4.048773
v -4.730970 0.000000 -4.095671
v -4.730970 5.000000 -4.095671
v -4.707867 0.000000 -4.138893
v -4.707867 5.000000 -4.138893
v -4.676776 0.000000 -4.176777
v -4.676776 5.000000 -4.176777
v -4.638892 0.000000 -4.207868
v -4.638892 5.000000 -4.207868
v -4.595671 0.000000 -4.230970
v -4.595671 5.000000 -4.230970
v -4.548772 0.000000 -4.245196
v -4.548772 5.000000 -4.245196
vt 1.000000 0.000000
vt 1.000000 1.000000
vt 0.000000 1.000000
vt 0.222215 0.084265
vt 0.009607 0.402455
vt 0.402456 0.990393
vt 0.597545 0.009607
vt 0.084266 0.777786
vt 0.000000 0.000000
vt 0.500000 1.000000
vt 0.597545 0.990393
vt 0.691342 0.961940
vt 0.777785 0.915735
vt 0.853553 0.853553
vt 0.915735 0.777785
vt 0.961940 0.691342
vt 0.990393 0.597545
vt 1.000000 0.500000
vt 0.990393 0.402455
vt 0.961940 0.308658
vt 0.915735 0.222215
vt 0.853553 0.146447
vt 0.777785 0.084265
vt 0.691342 0.038060
vt 0.500000 0.000000
vt 0.402455 0.009607
vt 0.308658 0.038060
vt 0.146446 0.146447
vt 0.084265 0.222215
vt 0.038060 0.308659
vt 0.000000 0.500000
vt 0.009607 0.597546
vt 0.038060 0.691342
vt 0.146447 0.853554
vt 0.222215 0.915735
vt 0.308659 0.961940
vn 0.098000 0.000000 -0.995200
vn 0.290300 0.000000 -0.956900
vn 0.471400 0.000000 -0.881900
vn 0.634400 0.000000 -0.773000
vn 0.773000 0.000000 -0.634400
vn 0.881900 0.000000 -0.471400
vn 0.956900 0.000000 -0.290300
vn 0.995200 0.000000 -0.098000
vn 0.995200 0.000000 0.098000
vn 0.956900 0.000000 0.290300
vn 0.881900 0.000000 0.471400
vn 0.773000 0.000000 0.634400
vn 0.634400 0.000000 0.773000
vn 0.471400 0.000000 0.881900
vn 0.290300 0.000000 0.956900
vn 0.098000 0.000000 0.995200
vn -0.098000 0.000000 0.995200
vn -0.290300 0.000000 0.956900
vn -0.471400 0.000000 0.881900
vn -0.634400 0.000000 0.773000
vn -0.773000 0.000000 0.634400
vn -0.881900 0.000000 0.471400
vn -0.956900 0.000000 0.290300
vn -0.995200 0.000000 0.098000
vn -0.995200 0.000000 -0.098000
vn -0.956900 0.000000 -0.290300
vn -0.881900 0.000000 -0.471400
vn -0.773000 0.000000 -0.634400
vn -0.634400 0.000000 -0.773000
vn -0.471400 0.000000 -0.881900
vn 0.000000 1.000000 0.000000
vn -0.098000 0.000000 -0.995200
vn -0.290300 0.000000 -0.956900
vn 0.000000 -1.000000 0.000000
usemtl pole
s off
f 74/45/37 76/46/37 75/47/37
f 76/45/38 78/46/38 77/47/38
f 78/45/39 80/46/39 79/47/39
f 80/45/40 82/46/40 81/47/40
f 82/45/41 84/46/41 83/47/41
f 84/45/42 86/46/42 85/47/42
f 86/45/43 88/46/43 87/47/43
f 88/45/44 90/46/44 89/47/44
f 90/45/45 92/46/45 91/47/45
f 92/45/46 94/46/46 93/47/46
f 94/45/47 96/46/47 95/47/47
f 96/45/48 98/46/48 97/47/48
f 98/45/49 100/46/49 99/47/49
f 100/45/50 102/46/50 101/47/50
f 102/45/51 104/46/51 103/47/51
f 104/45/52 106/46/52 105/47/52
f 106/45/53 108/46/53 107/47/53
f 108/45/54 110/46/54 109/47/54
f 110/45/55 112/46/55 111/47/55
f 112/45/56 114/46/56 113/47/56
f 114/45/57 116/46/57 115/47/57
f 116/45/58 118/46/58 117/47/58
f 118/45/59 120/46/59 119/47/59
f 120/45/60 122/46/60 121/47/60
f 122/45/61 124/46/61 123/47/61
f 124/45/62 126/46/62 125/47/62
f 126/45/63 128/46/63 127/47/63
f 128/45/64 130/46/64 129/47/64
f 130/45/65 132/46/65 131/47/65
f 132/45/66 134/46/66 133/47/66
f 102/48/67 94/49/67 78/50/67
f 136/45/68 74/46/68 73/47/68
f 134/45/69 136/46/69 135/47/69
f 103/51/70 127/52/70 135/50/70
f 73/53/37 74/45/37 75/47/37
f 75/53/38 76/45/38 77/47/38
f 77/53/39 78/45/39 79/47/39
f 79/53/40 80/45/40 81/47/40
f 81/53/41 82/45/41 83/47/41
f 83/53/42 84/45/42 85/47/42
f 85/53/43 86/45/43 87/47/43
f 87/53/44 88/45/44 89/47/44
f 89/53/45 90/45/45 91/47/45
f 91/53/46 92/45/46 93/47/46
f 93/53/47 94/45/47 95/47/47
f 95/53/48 96/45/48 97/47/48
f 97/53/49 98/45/49 99/47/49
f 99/53/50 100/45/50 101/47/50
f 101/53/51 102/45/51 103/47/51
f 103/53/52 104/45/52 105/47/52
f 105/53/53 106/45/53 107/47/53
f 107/53/54 108/45/54 109/47/54
f 109/53/55 110/45/55 111/47/55
f 111/53/56 112/45/56 113/47/56
f 113/53/57 114/45/57 115/47/57
f 115/53/58 116/45/58 117/47/58
f 117/53/59 118/45/59 119/47/59
f 119/53/60 120/45/60 121/47/60
f 121/53/61 122/45/61 123/47/61
f 123/53/62 124/45/62 125/47/62
f 125/53/63 126/45/63 127/47/63
f 127/53/64 128/45/64 129/47/64
f 129/53/65 130/45/65 131/47/65
f 131/53/66 132/45/66 133/47/66
f 78/50/67 76/54/67 74/55/67
f 74/55/67 136/56/67 78/50/67
f 134/57/67 132/58/67 130/59/67
f 130/59/67 128/60/67 134/57/67
f 126/61/67 124/62/67 122/63/67
f 122/63/67 120/64/67 118/65/67
f 118/65/67 116/66/67 114/67/67
f 114/67/67 112/68/67 118/65/67
f 110/51/67 108/69/67 106/70/67
f 106/70/67 104/71/67 102/48/67
f 102/48/67 100/72/67 94/49/67
f 98/73/67 96/74/67 94/49/67
f 94/49/67 92/75/67 90/76/67
f 90/76/67 88/77/67 86/52/67
f 86/52/67 84/78/67 82/79/67
f 82/79/67 80/80/67 78/50/67
f 78/50/67 136/56/67 134/57/67
f 134/57/67 128/60/67 126/61/67
f 126/61/67 122/63/67 118/65/67
f 118/65/67 112/68/67 110/51/67
f 110/51/67 106/70/67 102/48/67
f 100/72/67 98/73/67 94/49/67
f 94/49/67 90/76/67 86/52/67
f 86/52/67 82/79/67 78/50/67
f 78/50/67 134/57/67 126/61/67
f 126/61/67 118/65/67 78/50/67
f 110/51/67 102/48/67 78/50/67
f 94/49/67 86/52/67 78/50/67
f 78/50/67 118/65/67 110/51/67
f 135/53/68 136/45/68 73/47/68
f 133/53/69 134/45/69 135/47/69
f 135/50/70 73/54/70 75/55/70
f 75/55/70 77/56/70 135/50/70
f 79/57/70 81/58/70 83/59/70
f 83/59/70 85/60/70 79/57/70
f 87/61/70 89/62/70 91/63/70
f 91/63/70 93/64/70 95/65/70
f 95/65/70 97/66/70 99/67/70
f 99/67/70 101/68/70 95/65/70
f 103/51/70 105/69/70 111/48/70
f 107/70/70 109/71/70 111/48/70
f 111/48/70 113/72/70 115/73/70
f 115/73/70 117/74/70 111/48/70
f 119/49/70 121/75/70 127/52/70
f 123/76/70 125/77/70 127/52/70
f 127/52/70 129/78/70 131/79/70
f 131/79/70 133/80/70 127/52/70
f 135/50/70 77/56/70 79/57/70
f 79/57/70 85/60/70 87/61/70
f 87/61/70 91/63/70 103/51/70
f 95/65/70 101/68/70 103/51/70
f 105/69/70 107/70/70 111/48/70
f 111/48/70 117/74/70 119/49/70
f 121/75/70 123/76/70 127/52/70
f 127/52/70 133/80/70 135/50/70
f 135/50/70 79/57/70 87/61/70
f 91/63/70 95/65/70 103/51/70
f 103/51/70 111/48/70 119/49/70
f 119/49/70 127/52/70 103/51/70
f 135/50/70 87/61/70 103/51/70
o finish_line_Plane.010
v -5.000000 0.001000 3.000000
v -4.000000 0.001000 3.000000
v -5.000000 0.001000 -3.000000
v -4.000000 0.001000 -3.000000
vt 1.000000 0.000100
vt 1.000000 2.000000
vt 0.000100 2.000000
vt 0.000100 0.000100
vn 0.000000 1.000000 0.000000
usemtl checkered_ground
s off
f 138/81/71 140/82/71 139/83/71
f 137/84/71 138/81/71 139/83/71
o road_Plane.007
v -4.000000 0.001000 3.000000
v 5.000000 0.001000 3.000000
v -4.000000 0.001000 -3.000000
v 5.000000 0.001000 -3.000000
vt 0.999918 0.000082
vt 0.999918 0.666640
vt 0.000082 0.666640
vt 0.000082 0.000082
vn 0.000000 1.000000 0.000000
usemtl road.001
s off
f 142/85/72 144/86/72 143/87/72
f 141/88/72 142/85/72 143/87/72
