# Blender v2.76 (sub 0) OBJ File: 'track_straight.blend'
# www.blender.org
mtllib Assets/Track/track_straight.mtl
o Side2_Plane.002
v -5.000000 0.000000 5.000000
v 5.000000 0.000000 5.000000
v -5.000000 0.000000 3.000000
v 5.000000 0.000000 3.000000
vt 0.999955 0.000045
vt 0.999955 0.200027
vt 0.000045 0.200027
vt 0.000045 0.000045
vn 0.000000 1.000000 0.000000
usemtl grass
s off
f 2/1/1 4/2/1 3/3/1
f 1/4/1 2/1/1 3/3/1
o Side1_Plane.001
v -5.000000 0.000000 -3.000000
v 5.000000 0.000000 -3.000000
v -5.000000 0.000000 -5.000000
v 5.000000 0.000000 -5.000000
vt 0.999955 0.000045
vt 0.999955 0.200027
vt 0.000045 0.200027
vt 0.000045 0.000045
vn 0.000000 1.000000 0.000000
usemtl grass
s off
f 6/5/2 8/6/2 7/7/2
f 5/8/2 6/5/2 7/7/2
o Road_Plane
v -5.000000 0.000000 3.000000
v 5.000000 0.000000 3.000000
v -5.000000 0.000000 -3.000000
v 5.000000 0.000000 -3.000000
vt 0.833272 0.000091
vt 0.833272 0.999909
vt 0.000091 0.999909
vt 0.000091 0.000092
vn 0.000000 1.000000 0.000000
usemtl pavement
s off
f 10/9/3 12/10/3 11/11/3
f 9/12/3 10/9/3 11/11/3
