# Blender v2.76 (sub 0) OBJ File: 'track_turn_left_large.blend'
# www.blender.org
mtllib Assets/Track/track_turn_left_large.mtl
o Grass_Plane.003
v -10.000000 0.000000 10.000000
v 10.000000 0.000000 10.000000
v -10.000000 0.000000 -10.000000
v 10.000000 0.000000 -10.000000
vt 10.000000 0.000100
vt 10.000000 10.000000
vt 0.000100 10.000000
vt 0.000100 0.000100
vn 0.000000 1.000000 0.000000
usemtl grass
s off
f 2/1/1 4/2/1 3/3/1
f 1/4/1 2/1/1 3/3/1
o road_Plane
v 6.000000 0.001000 -2.000000
v -8.000000 0.001000 -3.000000
v -3.000000 0.001000 -8.000000
v 10.000000 0.001000 -8.000000
v -2.000000 0.001000 10.000000
v -2.000000 0.001000 6.000000
v -8.000000 0.001000 10.000000
v 10.000000 0.001000 -2.000000
vt 3.333000 7.780000
vt 3.333000 10.000000
vt 0.000000 10.000000
vt 0.000000 2.780000
vt 2.780000 0.000000
vt 7.778000 3.333000
vt 10.000000 0.000000
vt 10.000000 3.333000
vn 0.000000 1.000000 0.000000
usemtl road
s off
f 5/5/2 12/6/2 8/7/2
f 5/5/2 8/7/2 7/8/2
f 7/8/2 6/9/2 5/5/2
f 6/9/2 10/10/2 5/5/2
f 11/11/2 10/10/2 6/9/2
f 9/12/2 10/10/2 11/11/2
