# Blender v2.76 (sub 0) OBJ File: 'track_turn_left_small.blend'
# www.blender.org
mtllib Assets/Track/track_turn_left_small.mtl
o Grass_Plane.003
v -5.000000 0.000000 5.000000
v 5.000000 0.000000 5.000000
v -5.000000 0.000000 -5.000000
v 5.000000 0.000000 -5.000000
vt 5.000000 0.000100
vt 5.000000 5.000000
vt 0.000100 5.000000
vt 0.000100 0.000100
vn 0.000000 1.000000 0.000000
usemtl grass
s off
f 2/1/1 4/2/1 3/3/1
f 1/4/1 2/1/1 3/3/1
o road_Plane
v 4.000000 0.001000 3.000000
v -3.000000 0.001000 0.000000
v 0.000000 0.001000 -3.000000
v 5.000000 0.001000 -3.000000
v 3.000000 0.001000 5.000000
v 3.000000 0.001000 4.000000
v -3.000000 0.001000 5.000000
v 5.000000 0.001000 3.000000
vt 2.810000 0.315000
vt 3.125000 0.000000
vt 5.000000 1.875000
vt 3.435000 3.435000
vt 1.565000 3.435000
vt 2.190000 0.315000
vt 0.000000 1.875000
vt 1.875000 0.000000
vn 0.000000 1.000000 0.000000
usemtl road
s off
f 5/5/2 12/6/2 8/7/2
f 5/5/2 8/7/2 7/8/2
f 7/8/2 6/9/2 5/5/2
f 6/9/2 10/10/2 5/5/2
f 11/11/2 10/10/2 6/9/2
f 9/12/2 10/10/2 11/11/2
