# Blender v2.76 (sub 0) OBJ File: 'track_turn_right_small.blend'
# www.blender.org
mtllib Assets/Track/track_turn_right_small.mtl
o Plane_Plane.003
v -5.000000 -0.003000 5.000000
v 5.000000 -0.003000 5.000000
v -5.000000 -0.003000 -5.000000
v 5.000000 -0.003000 -5.000000
vt 0.999900 0.000100
vt 0.999900 0.999900
vt 0.000100 0.999900
vt 0.000100 0.000100
vn 0.000000 1.000000 0.000000
usemtl grass
s off
f 2/1/1 4/2/1 3/3/1
f 1/4/1 2/1/1 3/3/1
o road_Plane
v 4.000000 0.000000 -3.000000
v -3.000000 0.000000 0.000000
v 0.000000 0.000000 3.000000
v 5.000000 0.000000 -3.000000
v 3.000000 0.000000 -5.000000
v 3.000000 0.000000 -4.000000
v -3.000000 0.000000 -5.000000
v 5.000000 0.000000 3.000000
vt 0.562490 0.624979
vt 0.999917 0.312531
vt 0.624979 0.687469
vt 0.687469 0.000083
vt 0.437510 0.624979
vt 0.312531 0.000083
vt 0.000083 0.312531
vt 0.375021 0.687469
vn 0.000000 1.000000 0.000000
usemtl road
s off
f 5/5/2 12/6/2 8/7/2
f 12/6/2 5/5/2 7/8/2
f 10/9/2 7/8/2 5/5/2
f 7/8/2 10/9/2 6/10/2
f 6/10/2 10/9/2 11/11/2
f 9/12/2 11/11/2 10/9/2
