# Blender v2.76 (sub 0) OBJ File: 'track_ramp_down_flat.blend'
# www.blender.org
mtllib Assets/Track/track_ramp_down_flat.mtl
o Grass_Plane.015
v -4.000000 0.012300 -5.000000
v -5.000000 0.000000 -5.000000
v -3.999999 0.012300 4.999999
v -4.999999 0.000000 4.999999
v -3.000001 0.049000 -5.000000
v -3.000000 0.049000 4.999999
v -2.000001 0.109000 -5.000000
v -2.000000 0.109000 5.000000
v -1.000001 0.190100 -5.000000
v -1.000000 0.190100 4.999999
v -0.000001 0.292900 -5.000000
v 0.000000 0.292900 4.999998
v 0.999999 0.412200 -5.000000
v 1.000000 0.412200 4.999998
v 1.999999 0.546000 -5.000001
v 2.000000 0.546000 4.999998
v 2.999999 0.691000 -5.000001
v 3.000000 0.691000 4.999999
v 3.999999 0.843600 -5.000001
v 4.000000 0.843600 4.999998
v 4.999999 1.000000 -5.000001
v 5.000000 1.000000 4.999999
vt 5.000000 0.000100
vt 5.000000 5.000000
vt 4.500000 5.000000
vt 4.000000 5.000000
vt 4.000000 0.000100
vt 3.500000 5.000000
vt 3.500000 0.000100
vt 3.000000 5.000000
vt 3.000000 0.000100
vt 2.500000 5.000000
vt 2.000000 5.000000
vt 2.000000 0.000100
vt 1.500000 5.000000
vt 1.000000 5.000000
vt 1.000000 0.000100
vt 0.500000 5.000000
vt 0.500000 0.000100
vt 0.000100 5.000000
vt 4.500000 0.000100
vt 2.500000 0.000100
vt 1.500000 0.000100
vt 0.000100 0.000100
vn -0.012300 0.999900 0.000000
vn -0.036700 0.999300 0.000000
vn -0.059900 0.998200 0.000000
vn -0.080800 0.996700 0.000000
vn -0.102300 0.994800 0.000000
vn -0.118500 0.993000 0.000000
vn -0.132600 0.991200 0.000000
vn -0.143500 0.989700 0.000000
vn -0.150900 0.988600 0.000000
vn -0.154500 0.988000 0.000000
usemtl grass
s off
f 2/1/1 4/2/1 3/3/1
f 3/3/2 6/4/2 5/5/2
f 6/4/3 8/6/3 7/7/3
f 8/6/4 10/8/4 9/9/4
f 9/9/5 10/8/5 12/10/5
f 12/10/6 14/11/6 13/12/6
f 13/12/7 14/11/7 16/13/7
f 16/13/8 18/14/8 17/15/8
f 18/14/9 20/16/9 19/17/9
f 19/17/10 20/16/10 22/18/10
f 1/19/1 2/1/1 3/3/1
f 1/19/2 3/3/2 5/5/2
f 5/5/3 6/4/3 7/7/3
f 7/7/4 8/6/4 9/9/4
f 11/20/5 9/9/5 12/10/5
f 11/20/6 12/10/6 13/12/6
f 15/21/7 13/12/7 16/13/7
f 15/21/8 16/13/8 17/15/8
f 17/15/9 18/14/9 19/17/9
f 21/22/10 19/17/10 22/18/10
o Road_Plane.002
v -4.000000 0.013300 -3.000000
v -5.000000 0.001000 -3.000000
v -4.000000 0.013300 3.000000
v -5.000000 0.001000 3.000000
v -3.000000 0.049900 -3.000000
v -3.000000 0.049900 3.000000
v -2.000000 0.110000 -3.000000
v -2.000000 0.110000 3.000000
v -1.000000 0.191100 -3.000000
v -1.000000 0.191100 3.000000
v -0.000000 0.293900 -3.000000
v 0.000000 0.293900 3.000000
v 1.000000 0.413200 -3.000000
v 1.000000 0.413200 3.000000
v 2.000000 0.547000 -3.000000
v 2.000000 0.547000 3.000000
v 3.000000 0.691100 -3.000000
v 3.000000 0.691100 3.000000
v 4.000000 0.844600 -3.000000
v 4.000000 0.844600 3.000000
v 5.000000 1.001000 -3.000000
v 5.000000 1.001000 3.000000
vt 5.000000 0.000078
vt 5.000000 3.000000
vt 4.500000 3.000000
vt 4.000000 3.000000
vt 4.000000 0.000078
vt 3.500000 3.000000
vt 3.500000 0.000078
vt 3.000000 3.000000
vt 3.000000 0.000078
vt 2.500000 3.000000
vt 2.500000 0.000078
vt 2.000000 3.000000
vt 2.000000 0.000077
vt 1.500000 3.000000
vt 1.500000 0.000077
vt 1.000000 3.000000
vt 1.000000 0.000077
vt 0.500000 3.000000
vt 0.500000 0.000077
vt 0.000077 3.000000
vt 0.000078 0.000077
vt 4.500000 0.000078
vn -0.012300 0.999900 0.000000
vn -0.036600 0.999300 0.000000
vn -0.060000 0.998200 0.000000
vn -0.080800 0.996700 0.000000
vn -0.102300 0.994800 0.000000
vn -0.118500 0.993000 0.000000
vn -0.132600 0.991200 0.000000
vn -0.142600 0.989800 0.000000
vn -0.151700 0.988400 0.000000
vn -0.154500 0.988000 0.000000
usemtl road
s off
f 24/23/11 26/24/11 25/25/11
f 25/25/12 28/26/12 27/27/12
f 28/26/13 30/28/13 29/29/13
f 30/28/14 32/30/14 31/31/14
f 32/30/15 34/32/15 33/33/15
f 34/32/16 36/34/16 35/35/16
f 36/34/17 38/36/17 37/37/17
f 38/36/18 40/38/18 39/39/18
f 40/38/19 42/40/19 41/41/19
f 42/40/20 44/42/20 43/43/20
f 23/44/11 24/23/11 25/25/11
f 23/44/12 25/25/12 27/27/12
f 27/27/13 28/26/13 29/29/13
f 29/29/14 30/28/14 31/31/14
f 31/31/15 32/30/15 33/33/15
f 33/33/16 34/32/16 35/35/16
f 35/35/17 36/34/17 37/37/17
f 37/37/18 38/36/18 39/39/18
f 39/39/19 40/38/19 41/41/19
f 41/41/20 42/40/20 43/43/20
