# Blender v2.76 (sub 0) OBJ File: 'track_turn_left.blend'
# www.blender.org
mtllib track_turn_left.mtl
o Grass_Plane.002
v -10.000000 -0.000010 8.000000
v 10.000000 -0.000010 8.000000
v -10.000000 -0.000010 -8.000000
v 10.000000 -0.000010 -8.000000
vn 0.000000 1.000000 0.000000
usemtl Material.002
s off
f 1//1 2//1 4//1 3//1
o Road_Plane.001
v 3.000000 0.000000 8.000000
v 10.000000 0.000000 5.000000
v -7.000000 0.000000 8.000000
v 10.000000 0.000000 -5.000000
v -2.000000 0.000000 -5.000000
v -7.000000 0.000000 0.000000
v 3.000000 0.000000 6.500000
v 4.500000 0.000000 5.000000
vn 0.000000 -1.000000 0.000000
usemtl Material.001
s off
f 8//2 6//2 9//2
f 7//2 10//2 5//2
f 5//2 10//2 11//2
f 12//2 11//2 10//2
f 10//2 9//2 12//2
f 6//2 12//2 9//2
