# Blender v2.76 (sub 0) OBJ File: 'track_turn_right_large.blend'
# www.blender.org
mtllib Assets/Track/track_turn_right_large.mtl
o Grass_Plane.003
v -10.000000 0.000000 10.000000
v 10.000000 0.000000 10.000000
v -10.000000 0.000000 -10.000000
v 10.000000 0.000000 -10.000000
vt 0.999900 0.000100
vt 0.999900 0.999900
vt 0.000100 0.999900
vt 0.000100 0.000100
vn 0.000000 1.000000 0.000000
usemtl grass
s off
f 2/1/1 4/2/1 3/3/1
f 1/4/1 2/1/1 3/3/1
o road_Plane
v 6.000000 0.001000 2.000000
v -8.000000 0.001000 3.000000
v -3.000000 0.001000 8.000000
v 10.000000 0.001000 2.000000
v -2.000000 0.001000 -10.000000
v -2.000000 0.001000 -6.000000
v -8.000000 0.001000 -10.000000
v 10.000000 0.001000 8.000000
vt 0.416679 0.277810
vt 0.361131 0.000073
vt 0.527774 0.166715
vt 0.000073 0.361131
vt 0.416679 0.722190
vt 0.000073 0.638869
vt 0.361131 0.999927
vt 0.527774 0.833285
vn 0.000000 1.000000 0.000000
usemtl road
s off
f 5/5/2 12/6/2 8/7/2
f 12/6/2 5/5/2 7/8/2
f 10/9/2 7/8/2 5/5/2
f 7/8/2 10/9/2 6/10/2
f 6/10/2 10/9/2 11/11/2
f 9/12/2 11/11/2 10/9/2
