# Blender v2.78 (sub 0) OBJ File: 'track_straight.blend'
# www.blender.org
mtllib track_straight.mtl
o Side2_Plane.006
v -10.000000 0.000000 5.000000
v 10.000000 0.000000 5.000000
v -10.000000 0.000000 8.000000
v 10.000000 0.000000 8.000000
vt 0.0001 0.3000
vt 0.9999 0.0001
vt 0.9999 0.3000
vt 0.0001 0.0001
vn 0.0000 1.0000 0.0000
usemtl Material.003
s off
f 1/1/1 4/2/1 2/3/1
f 1/1/1 3/4/1 4/2/1
o Side1_Plane.005
v -10.000000 0.000000 -5.000000
v 10.000000 0.000000 -5.000000
v -10.000000 0.000000 -8.000000
v 10.000000 0.000000 -8.000000
vt 0.9999 0.0001
vt 0.0001 0.3000
vt 0.0001 0.0001
vt 0.9999 0.3000
vn 0.0000 1.0000 0.0000
usemtl Material.004
s off
f 6/5/2 7/6/2 5/7/2
f 6/5/2 8/8/2 7/6/2
o Road_Plane.004
v -10.000000 0.000000 5.000000
v 10.000000 0.000000 5.000000
v -10.000000 0.000000 -5.000000
v 10.000000 0.000000 -5.000000
vt 0.9999 0.0001
vt 0.0001 0.9999
vt 0.0001 0.0001
vt 1.0000 1.0000
vn 0.0000 1.0000 0.0000
usemtl Material.005
s off
f 10/9/3 11/10/3 9/11/3
f 10/9/3 12/12/3 11/10/3
