# Blender v2.76 (sub 0) OBJ File: 'track_finish.blend'
# www.blender.org
mtllib track_finish.mtl
o Grid
v -8.000000 0.000000 5.000000
v -6.000000 0.000000 5.000000
v -4.000000 0.000000 5.000000
v -2.000000 0.000000 5.000000
v 0.000000 0.000000 5.000000
v 2.000000 0.000000 5.000000
v 4.000000 0.000000 5.000000
v 6.000000 0.000000 5.000000
v 8.000000 0.000000 5.000000
v 10.000000 0.000000 5.000000
v -8.000000 0.000000 3.888889
v -6.000000 0.000000 3.888889
v -4.000000 0.000000 3.888889
v -2.000000 0.000000 3.888889
v 0.000000 0.000000 3.888889
v 2.000000 0.000000 3.888889
v 4.000000 0.000000 3.888889
v 6.000000 0.000000 3.888889
v 8.000000 0.000000 3.888889
v 10.000000 0.000000 3.888889
v -8.000000 0.000000 2.777778
v -6.000000 0.000000 2.777778
v -4.000000 0.000000 2.777778
v -2.000000 0.000000 2.777778
v 0.000000 0.000000 2.777778
v 2.000000 0.000000 2.777778
v 4.000000 0.000000 2.777778
v 6.000000 0.000000 2.777778
v 8.000000 0.000000 2.777778
v 10.000000 0.000000 2.777778
v -8.000000 0.000000 1.666667
v -6.000000 0.000000 1.666667
v -4.000000 0.000000 1.666667
v -2.000000 0.000000 1.666667
v 0.000000 0.000000 1.666667
v 2.000000 0.000000 1.666667
v 4.000000 0.000000 1.666667
v 6.000000 0.000000 1.666667
v 8.000000 0.000000 1.666667
v 10.000000 0.000000 1.666667
v -8.000000 0.000000 0.555556
v -6.000000 0.000000 0.555556
v -4.000000 0.000000 0.555556
v -2.000000 0.000000 0.555556
v 0.000000 0.000000 0.555556
v 2.000000 0.000000 0.555556
v 4.000000 0.000000 0.555556
v 6.000000 0.000000 0.555556
v 8.000000 0.000000 0.555556
v 10.000000 0.000000 0.555556
v -8.000000 0.000000 -0.555556
v -6.000000 0.000000 -0.555556
v -4.000000 0.000000 -0.555556
v -2.000000 0.000000 -0.555556
v 0.000000 0.000000 -0.555556
v 2.000000 0.000000 -0.555556
v 4.000000 0.000000 -0.555556
v 6.000000 0.000000 -0.555556
v 8.000000 0.000000 -0.555556
v 10.000000 0.000000 -0.555556
v -8.000000 0.000000 -1.666667
v -6.000000 0.000000 -1.666667
v -4.000000 0.000000 -1.666667
v -2.000000 0.000000 -1.666667
v 0.000000 0.000000 -1.666667
v 2.000000 0.000000 -1.666667
v 4.000000 0.000000 -1.666667
v 6.000000 0.000000 -1.666667
v 8.000000 0.000000 -1.666667
v 10.000000 0.000000 -1.666667
v -8.000000 0.000000 -2.777778
v -6.000000 0.000000 -2.777778
v -4.000000 0.000000 -2.777778
v -2.000000 0.000000 -2.777778
v 0.000000 0.000000 -2.777778
v 2.000000 0.000000 -2.777778
v 4.000000 0.000000 -2.777778
v 6.000000 0.000000 -2.777778
v 8.000000 0.000000 -2.777778
v 10.000000 0.000000 -2.777778
v -8.000000 0.000000 -3.888889
v -6.000000 0.000000 -3.888889
v -4.000000 0.000000 -3.888889
v -2.000000 0.000000 -3.888889
v 0.000000 0.000000 -3.888889
v 2.000000 0.000000 -3.888889
v 4.000000 0.000000 -3.888889
v 6.000000 0.000000 -3.888889
v 8.000000 0.000000 -3.888889
v 10.000000 0.000000 -3.888889
v -8.000000 0.000000 -5.000000
v -6.000000 0.000000 -5.000000
v -4.000000 0.000000 -5.000000
v -2.000000 0.000000 -5.000000
v 0.000000 0.000000 -5.000000
v 2.000000 0.000000 -5.000000
v 4.000000 0.000000 -5.000000
v 6.000000 0.000000 -5.000000
v 8.000000 0.000000 -5.000000
v 10.000000 0.000000 -5.000000
vn 0.000000 1.000000 0.000000
usemtl Material
s off
f 1//1 2//1 12//1 11//1
f 2//1 3//1 13//1 12//1
f 3//1 4//1 14//1 13//1
f 4//1 5//1 15//1 14//1
f 5//1 6//1 16//1 15//1
f 6//1 7//1 17//1 16//1
f 7//1 8//1 18//1 17//1
f 8//1 9//1 19//1 18//1
f 9//1 10//1 20//1 19//1
f 11//1 12//1 22//1 21//1
f 12//1 13//1 23//1 22//1
f 13//1 14//1 24//1 23//1
f 14//1 15//1 25//1 24//1
f 15//1 16//1 26//1 25//1
f 16//1 17//1 27//1 26//1
f 17//1 18//1 28//1 27//1
f 18//1 19//1 29//1 28//1
f 19//1 20//1 30//1 29//1
f 21//1 22//1 32//1 31//1
f 22//1 23//1 33//1 32//1
f 23//1 24//1 34//1 33//1
f 24//1 25//1 35//1 34//1
f 25//1 26//1 36//1 35//1
f 26//1 27//1 37//1 36//1
f 27//1 28//1 38//1 37//1
f 28//1 29//1 39//1 38//1
f 29//1 30//1 40//1 39//1
f 31//1 32//1 42//1 41//1
f 32//1 33//1 43//1 42//1
f 33//1 34//1 44//1 43//1
f 34//1 35//1 45//1 44//1
f 35//1 36//1 46//1 45//1
f 36//1 37//1 47//1 46//1
f 37//1 38//1 48//1 47//1
f 38//1 39//1 49//1 48//1
f 39//1 40//1 50//1 49//1
f 41//1 42//1 52//1 51//1
f 42//1 43//1 53//1 52//1
f 43//1 44//1 54//1 53//1
f 44//1 45//1 55//1 54//1
f 45//1 46//1 56//1 55//1
f 46//1 47//1 57//1 56//1
f 47//1 48//1 58//1 57//1
f 48//1 49//1 59//1 58//1
f 49//1 50//1 60//1 59//1
f 51//1 52//1 62//1 61//1
f 52//1 53//1 63//1 62//1
f 53//1 54//1 64//1 63//1
f 54//1 55//1 65//1 64//1
f 55//1 56//1 66//1 65//1
f 56//1 57//1 67//1 66//1
f 57//1 58//1 68//1 67//1
f 58//1 59//1 69//1 68//1
f 59//1 60//1 70//1 69//1
f 61//1 62//1 72//1 71//1
f 62//1 63//1 73//1 72//1
f 63//1 64//1 74//1 73//1
f 64//1 65//1 75//1 74//1
f 65//1 66//1 76//1 75//1
f 66//1 67//1 77//1 76//1
f 67//1 68//1 78//1 77//1
f 68//1 69//1 79//1 78//1
f 69//1 70//1 80//1 79//1
f 71//1 72//1 82//1 81//1
f 72//1 73//1 83//1 82//1
f 73//1 74//1 84//1 83//1
f 74//1 75//1 85//1 84//1
f 75//1 76//1 86//1 85//1
f 76//1 77//1 87//1 86//1
f 77//1 78//1 88//1 87//1
f 78//1 79//1 89//1 88//1
f 79//1 80//1 90//1 89//1
f 81//1 82//1 92//1 91//1
f 82//1 83//1 93//1 92//1
f 83//1 84//1 94//1 93//1
f 84//1 85//1 95//1 94//1
f 85//1 86//1 96//1 95//1
f 86//1 87//1 97//1 96//1
f 87//1 88//1 98//1 97//1
f 88//1 89//1 99//1 98//1
f 89//1 90//1 100//1 99//1
o Side2_Plane.005
v -10.000000 0.000000 -8.000000
v 10.000000 0.000000 -8.000000
v -10.000000 0.000000 -5.000000
v 10.000000 0.000000 -5.000000
vn 0.000000 1.000000 0.000000
usemtl Material.003
s off
f 102//2 101//2 103//2 104//2
o Pole2_Cylinder.002
v -9.000000 0.000000 -5.250000
v -9.000000 6.000000 -5.250000
v -8.951227 0.000000 -5.245196
v -8.951227 6.000000 -5.245196
v -8.904329 0.000000 -5.230970
v -8.904329 6.000000 -5.230970
v -8.861108 0.000000 -5.207868
v -8.861108 6.000000 -5.207868
v -8.823223 0.000000 -5.176777
v -8.823223 6.000000 -5.176777
v -8.792132 0.000000 -5.138893
v -8.792132 6.000000 -5.138893
v -8.769031 0.000000 -5.095671
v -8.769031 6.000000 -5.095671
v -8.754804 0.000000 -5.048773
v -8.754804 6.000000 -5.048773
v -8.750000 0.000000 -5.000000
v -8.750000 6.000000 -5.000000
v -8.754804 0.000000 -4.951228
v -8.754804 6.000000 -4.951228
v -8.769031 0.000000 -4.904329
v -8.769031 6.000000 -4.904329
v -8.792132 0.000000 -4.861107
v -8.792132 6.000000 -4.861107
v -8.823223 0.000000 -4.823223
v -8.823223 6.000000 -4.823223
v -8.861108 0.000000 -4.792132
v -8.861108 6.000000 -4.792132
v -8.904329 0.000000 -4.769030
v -8.904329 6.000000 -4.769030
v -8.951227 0.000000 -4.754804
v -8.951227 6.000000 -4.754804
v -9.000000 0.000000 -4.750000
v -9.000000 6.000000 -4.750000
v -9.048773 0.000000 -4.754804
v -9.048773 6.000000 -4.754804
v -9.095671 0.000000 -4.769030
v -9.095671 6.000000 -4.769030
v -9.138893 0.000000 -4.792133
v -9.138893 6.000000 -4.792133
v -9.176777 0.000000 -4.823224
v -9.176777 6.000000 -4.823224
v -9.207868 0.000000 -4.861108
v -9.207868 6.000000 -4.861108
v -9.230970 0.000000 -4.904329
v -9.230970 6.000000 -4.904329
v -9.245196 0.000000 -4.951228
v -9.245196 6.000000 -4.951228
v -9.250000 0.000000 -5.000000
v -9.250000 6.000000 -5.000000
v -9.245196 0.000000 -5.048773
v -9.245196 6.000000 -5.048773
v -9.230969 0.000000 -5.095671
v -9.230969 6.000000 -5.095671
v -9.207868 0.000000 -5.138893
v -9.207868 6.000000 -5.138893
v -9.176777 0.000000 -5.176777
v -9.176777 6.000000 -5.176777
v -9.138892 0.000000 -5.207868
v -9.138892 6.000000 -5.207868
v -9.095671 0.000000 -5.230970
v -9.095671 6.000000 -5.230970
v -9.048772 0.000000 -5.245196
v -9.048772 6.000000 -5.245196
vt 0.000000 0.000000
vt 1.000000 0.000000
vt 1.000000 1.000000
vt 0.000000 1.000000
vt 0.500000 1.000000
vt 0.597545 0.990393
vt 0.691342 0.961940
vt 0.777785 0.915735
vt 0.853553 0.853553
vt 0.915735 0.777785
vt 0.961940 0.691342
vt 0.990393 0.597545
vt 1.000000 0.500000
vt 0.990393 0.402455
vt 0.961940 0.308658
vt 0.915735 0.222215
vt 0.853553 0.146447
vt 0.777785 0.084265
vt 0.691342 0.038060
vt 0.597545 0.009607
vt 0.500000 0.000000
vt 0.402455 0.009607
vt 0.308658 0.038060
vt 0.222215 0.084265
vt 0.146446 0.146447
vt 0.084265 0.222215
vt 0.038060 0.308659
vt 0.009607 0.402455
vt 0.000000 0.500000
vt 0.009607 0.597546
vt 0.038060 0.691342
vt 0.084266 0.777786
vt 0.146447 0.853554
vt 0.222215 0.915735
vt 0.308659 0.961940
vt 0.402456 0.990393
vn 0.098000 0.000000 -0.995200
vn 0.290300 0.000000 -0.956900
vn 0.471400 0.000000 -0.881900
vn 0.634400 0.000000 -0.773000
vn 0.773000 0.000000 -0.634400
vn 0.881900 0.000000 -0.471400
vn 0.956900 0.000000 -0.290300
vn 0.995200 0.000000 -0.098000
vn 0.995200 0.000000 0.098000
vn 0.956900 0.000000 0.290300
vn 0.881900 0.000000 0.471400
vn 0.773000 0.000000 0.634400
vn 0.634400 0.000000 0.773000
vn 0.471400 0.000000 0.881900
vn 0.290300 0.000000 0.956900
vn 0.098000 0.000000 0.995200
vn -0.098000 0.000000 0.995200
vn -0.290300 0.000000 0.956900
vn -0.471400 0.000000 0.881900
vn -0.634400 0.000000 0.773000
vn -0.773000 0.000000 0.634400
vn -0.881900 0.000000 0.471400
vn -0.956900 0.000000 0.290300
vn -0.995200 0.000000 0.098000
vn -0.995200 0.000000 -0.098000
vn -0.956900 0.000000 -0.290300
vn -0.881900 0.000000 -0.471400
vn -0.773000 0.000000 -0.634400
vn -0.634400 0.000000 -0.773000
vn -0.471400 0.000000 -0.881900
vn 0.000000 1.000000 0.000000
vn -0.098000 0.000000 -0.995200
vn -0.290300 0.000000 -0.956900
vn 0.000000 -1.000000 0.000000
usemtl Material.002
s off
f 105/1/3 106/2/3 108/3/3 107/4/3
f 107/1/4 108/2/4 110/3/4 109/4/4
f 109/1/5 110/2/5 112/3/5 111/4/5
f 111/1/6 112/2/6 114/3/6 113/4/6
f 113/1/7 114/2/7 116/3/7 115/4/7
f 115/1/8 116/2/8 118/3/8 117/4/8
f 117/1/9 118/2/9 120/3/9 119/4/9
f 119/1/10 120/2/10 122/3/10 121/4/10
f 121/1/11 122/2/11 124/3/11 123/4/11
f 123/1/12 124/2/12 126/3/12 125/4/12
f 125/1/13 126/2/13 128/3/13 127/4/13
f 127/1/14 128/2/14 130/3/14 129/4/14
f 129/1/15 130/2/15 132/3/15 131/4/15
f 131/1/16 132/2/16 134/3/16 133/4/16
f 133/1/17 134/2/17 136/3/17 135/4/17
f 135/1/18 136/2/18 138/3/18 137/4/18
f 137/1/19 138/2/19 140/3/19 139/4/19
f 139/1/20 140/2/20 142/3/20 141/4/20
f 141/1/21 142/2/21 144/3/21 143/4/21
f 143/1/22 144/2/22 146/3/22 145/4/22
f 145/1/23 146/2/23 148/3/23 147/4/23
f 147/1/24 148/2/24 150/3/24 149/4/24
f 149/1/25 150/2/25 152/3/25 151/4/25
f 151/1/26 152/2/26 154/3/26 153/4/26
f 153/1/27 154/2/27 156/3/27 155/4/27
f 155/1/28 156/2/28 158/3/28 157/4/28
f 157/1/29 158/2/29 160/3/29 159/4/29
f 159/1/30 160/2/30 162/3/30 161/4/30
f 161/1/31 162/2/31 164/3/31 163/4/31
f 163/1/32 164/2/32 166/3/32 165/4/32
f 108/5/33 106/6/33 168/7/33 166/8/33 164/9/33 162/10/33 160/11/33 158/12/33 156/13/33 154/14/33 152/15/33 150/16/33 148/17/33 146/18/33 144/19/33 142/20/33 140/21/33 138/22/33 136/23/33 134/24/33 132/25/33 130/26/33 128/27/33 126/28/33 124/29/33 122/30/33 120/31/33 118/32/33 116/33/33 114/34/33 112/35/33 110/36/33
f 167/1/34 168/2/34 106/3/34 105/4/34
f 165/1/35 166/2/35 168/3/35 167/4/35
f 105/5/36 107/6/36 109/7/36 111/8/36 113/9/36 115/10/36 117/11/36 119/12/36 121/13/36 123/14/36 125/15/36 127/16/36 129/17/36 131/18/36 133/19/36 135/20/36 137/21/36 139/22/36 141/23/36 143/24/36 145/25/36 147/26/36 149/27/36 151/28/36 153/29/36 155/30/36 157/31/36 159/32/36 161/33/36 163/34/36 165/35/36 167/36/36
o Side1_Plane.003
v -10.000000 0.000000 5.000000
v 10.000000 0.000000 5.000000
v -10.000000 0.000000 8.000000
v 10.000000 0.000000 8.000000
vn 0.000000 1.000000 0.000000
usemtl Material.003
s off
f 170//37 169//37 171//37 172//37
o Flag_Plane.002
v -9.000000 6.000000 5.000000
v -9.000000 4.000000 5.000000
v -9.000000 6.000000 -5.000000
v -9.000000 4.000000 -5.000000
vt 0.000100 0.000100
vt 0.999900 0.000100
vt 0.999900 2.000000
vt 0.000100 2.000000
vn 1.000000 0.000000 0.000000
usemtl Material.004
s off
f 173/37/38 174/38/38 176/39/38 175/40/38
o Pole1_Cylinder
v -9.000000 0.000000 4.750000
v -9.000000 6.000000 4.750000
v -8.951227 0.000000 4.754804
v -8.951227 6.000000 4.754804
v -8.904329 0.000000 4.769030
v -8.904329 6.000000 4.769030
v -8.861108 0.000000 4.792132
v -8.861108 6.000000 4.792132
v -8.823223 0.000000 4.823223
v -8.823223 6.000000 4.823223
v -8.792132 0.000000 4.861107
v -8.792132 6.000000 4.861107
v -8.769031 0.000000 4.904329
v -8.769031 6.000000 4.904329
v -8.754804 0.000000 4.951227
v -8.754804 6.000000 4.951227
v -8.750000 0.000000 5.000000
v -8.750000 6.000000 5.000000
v -8.754804 0.000000 5.048772
v -8.754804 6.000000 5.048772
v -8.769031 0.000000 5.095671
v -8.769031 6.000000 5.095671
v -8.792132 0.000000 5.138893
v -8.792132 6.000000 5.138893
v -8.823223 0.000000 5.176777
v -8.823223 6.000000 5.176777
v -8.861108 0.000000 5.207868
v -8.861108 6.000000 5.207868
v -8.904329 0.000000 5.230970
v -8.904329 6.000000 5.230970
v -8.951227 0.000000 5.245196
v -8.951227 6.000000 5.245196
v -9.000000 0.000000 5.250000
v -9.000000 6.000000 5.250000
v -9.048773 0.000000 5.245196
v -9.048773 6.000000 5.245196
v -9.095671 0.000000 5.230970
v -9.095671 6.000000 5.230970
v -9.138893 0.000000 5.207867
v -9.138893 6.000000 5.207867
v -9.176777 0.000000 5.176776
v -9.176777 6.000000 5.176776
v -9.207868 0.000000 5.138892
v -9.207868 6.000000 5.138892
v -9.230970 0.000000 5.095671
v -9.230970 6.000000 5.095671
v -9.245196 0.000000 5.048772
v -9.245196 6.000000 5.048772
v -9.250000 0.000000 5.000000
v -9.250000 6.000000 5.000000
v -9.245196 0.000000 4.951227
v -9.245196 6.000000 4.951227
v -9.230969 0.000000 4.904329
v -9.230969 6.000000 4.904329
v -9.207868 0.000000 4.861107
v -9.207868 6.000000 4.861107
v -9.176777 0.000000 4.823223
v -9.176777 6.000000 4.823223
v -9.138892 0.000000 4.792132
v -9.138892 6.000000 4.792132
v -9.095671 0.000000 4.769030
v -9.095671 6.000000 4.769030
v -9.048772 0.000000 4.754804
v -9.048772 6.000000 4.754804
vt 0.000000 0.000000
vt 1.000000 0.000000
vt 1.000000 1.000000
vt 0.000000 1.000000
vt 0.500000 1.000000
vt 0.597545 0.990393
vt 0.691342 0.961940
vt 0.777785 0.915735
vt 0.853553 0.853553
vt 0.915735 0.777785
vt 0.961940 0.691342
vt 0.990393 0.597545
vt 1.000000 0.500000
vt 0.990393 0.402455
vt 0.961940 0.308658
vt 0.915735 0.222215
vt 0.853553 0.146447
vt 0.777785 0.084265
vt 0.691342 0.038060
vt 0.597545 0.009607
vt 0.500000 0.000000
vt 0.402455 0.009607
vt 0.308658 0.038060
vt 0.222215 0.084265
vt 0.146446 0.146447
vt 0.084265 0.222215
vt 0.038060 0.308659
vt 0.009607 0.402455
vt 0.000000 0.500000
vt 0.009607 0.597546
vt 0.038060 0.691342
vt 0.084266 0.777786
vt 0.146447 0.853554
vt 0.222215 0.915735
vt 0.308659 0.961940
vt 0.402456 0.990393
vn 0.098000 0.000000 -0.995200
vn 0.290300 0.000000 -0.956900
vn 0.471400 0.000000 -0.881900
vn 0.634400 0.000000 -0.773000
vn 0.773000 0.000000 -0.634400
vn 0.881900 0.000000 -0.471400
vn 0.956900 0.000000 -0.290300
vn 0.995200 0.000000 -0.098000
vn 0.995200 0.000000 0.098000
vn 0.956900 0.000000 0.290300
vn 0.881900 0.000000 0.471400
vn 0.773000 0.000000 0.634400
vn 0.634400 0.000000 0.773000
vn 0.471400 0.000000 0.881900
vn 0.290300 0.000000 0.956900
vn 0.098000 0.000000 0.995200
vn -0.098000 0.000000 0.995200
vn -0.290300 0.000000 0.956900
vn -0.471400 0.000000 0.881900
vn -0.634400 0.000000 0.773000
vn -0.773000 0.000000 0.634400
vn -0.881900 0.000000 0.471400
vn -0.956900 0.000000 0.290300
vn -0.995200 0.000000 0.098000
vn -0.995200 0.000000 -0.098000
vn -0.956900 0.000000 -0.290300
vn -0.881900 0.000000 -0.471400
vn -0.773000 0.000000 -0.634400
vn -0.634400 0.000000 -0.773000
vn -0.471400 0.000000 -0.881900
vn 0.000000 1.000000 0.000000
vn -0.098000 0.000000 -0.995200
vn -0.290300 0.000000 -0.956900
vn 0.000000 -1.000000 0.000000
usemtl Material.002
s off
f 177/41/39 178/42/39 180/43/39 179/44/39
f 179/41/40 180/42/40 182/43/40 181/44/40
f 181/41/41 182/42/41 184/43/41 183/44/41
f 183/41/42 184/42/42 186/43/42 185/44/42
f 185/41/43 186/42/43 188/43/43 187/44/43
f 187/41/44 188/42/44 190/43/44 189/44/44
f 189/41/45 190/42/45 192/43/45 191/44/45
f 191/41/46 192/42/46 194/43/46 193/44/46
f 193/41/47 194/42/47 196/43/47 195/44/47
f 195/41/48 196/42/48 198/43/48 197/44/48
f 197/41/49 198/42/49 200/43/49 199/44/49
f 199/41/50 200/42/50 202/43/50 201/44/50
f 201/41/51 202/42/51 204/43/51 203/44/51
f 203/41/52 204/42/52 206/43/52 205/44/52
f 205/41/53 206/42/53 208/43/53 207/44/53
f 207/41/54 208/42/54 210/43/54 209/44/54
f 209/41/55 210/42/55 212/43/55 211/44/55
f 211/41/56 212/42/56 214/43/56 213/44/56
f 213/41/57 214/42/57 216/43/57 215/44/57
f 215/41/58 216/42/58 218/43/58 217/44/58
f 217/41/59 218/42/59 220/43/59 219/44/59
f 219/41/60 220/42/60 222/43/60 221/44/60
f 221/41/61 222/42/61 224/43/61 223/44/61
f 223/41/62 224/42/62 226/43/62 225/44/62
f 225/41/63 226/42/63 228/43/63 227/44/63
f 227/41/64 228/42/64 230/43/64 229/44/64
f 229/41/65 230/42/65 232/43/65 231/44/65
f 231/41/66 232/42/66 234/43/66 233/44/66
f 233/41/67 234/42/67 236/43/67 235/44/67
f 235/41/68 236/42/68 238/43/68 237/44/68
f 180/45/69 178/46/69 240/47/69 238/48/69 236/49/69 234/50/69 232/51/69 230/52/69 228/53/69 226/54/69 224/55/69 222/56/69 220/57/69 218/58/69 216/59/69 214/60/69 212/61/69 210/62/69 208/63/69 206/64/69 204/65/69 202/66/69 200/67/69 198/68/69 196/69/69 194/70/69 192/71/69 190/72/69 188/73/69 186/74/69 184/75/69 182/76/69
f 239/41/70 240/42/70 178/43/70 177/44/70
f 237/41/71 238/42/71 240/43/71 239/44/71
f 177/45/72 179/46/72 181/47/72 183/48/72 185/49/72 187/50/72 189/51/72 191/52/72 193/53/72 195/54/72 197/55/72 199/56/72 201/57/72 203/58/72 205/59/72 207/60/72 209/61/72 211/62/72 213/63/72 215/64/72 217/65/72 219/66/72 221/67/72 223/68/72 225/69/72 227/70/72 229/71/72 231/72/72 233/73/72 235/74/72 237/75/72 239/76/72
o Plane
v -10.000000 0.000000 5.000000
v -8.000000 0.000000 5.000000
v -10.000000 0.000000 -5.000000
v -8.000000 0.000000 -5.000000
vt 0.000000 0.000000
vt 0.999900 0.000100
vt 1.000000 2.000000
vt 0.000000 2.000000
vn 0.000000 1.000000 0.000000
usemtl Material.001
s off
f 241/77/73 242/78/73 244/79/73 243/80/73
