# Blender v2.76 (sub 0) OBJ File: 'track_turn_left.blend'
# www.blender.org
mtllib Assets/Track/track_turn_left.mtl
o Grass_Plane.002
v 10.000000 -0.001000 -8.000000
v -10.000000 -0.001000 -8.000000
v 10.000000 -0.001000 8.000000
v -10.000000 -0.001000 8.000000
vt 0.999900 0.000100
vt 0.999900 0.999900
vt 0.000100 0.999900
vt 0.000100 0.000100
vn 0.000000 1.000000 0.000000
usemtl grass
s off
f 2/1/1 4/2/1 3/3/1
f 1/4/1 2/1/1 3/3/1
o Road_Plane.001
v -3.000000 0.000000 -8.000000
v -10.000000 0.000000 -5.000000
v 7.000000 0.000000 -8.000000
v -10.000000 0.000000 5.000000
v 2.000000 0.000000 5.000000
v 7.000000 0.000000 0.000000
v -3.000000 0.000000 -6.500000
v -4.500000 0.000000 -5.000000
vt 0.000000 0.000000
vt 1.000000 0.000000
vt 1.000000 1.000000
vn 0.000000 -1.000000 0.000000
usemtl road
s off
f 8/5/2 6/6/2 9/7/2
f 7/5/2 10/6/2 5/7/2
f 5/5/2 10/6/2 11/7/2
f 12/5/2 11/6/2 10/7/2
f 10/5/2 9/6/2 12/7/2
f 6/5/2 12/6/2 9/7/2
