# Blender v2.78 (sub 0) OBJ File: 'skybox.blend'
# www.blender.org
mtllib Assets/Decorations/skybox.mtl
o skybox_Cube
v 1.000000 -1.000000 -1.000000
v 1.000000 -1.000000 1.000000
v -1.000000 -1.000000 1.000000
v -1.000000 -1.000000 -1.000000
v 1.000000 1.000000 -0.999999
v 0.999999 1.000000 1.000001
v -1.000000 1.000000 1.000000
v -1.000000 1.000000 -1.000000
vt 0.2501 0.3331
vt 0.4996 0.6666
vt 0.2498 0.6666
vt 0.7498 0.6683
vt 0.9997 0.3331
vt 0.9997 0.6665
vt 0.0000 0.6665
vt 0.2501 -0.0000
vt 0.5001 0.3331
vt 0.4996 0.9993
vt 0.2498 0.9993
vt 0.7498 0.3334
vt 0.0000 0.3331
vt 0.5001 0.0000
vn 0.0000 -1.0000 0.0000
vn 0.0000 1.0000 0.0000
vn 1.0000 -0.0000 0.0000
vn 0.0000 -0.0000 1.0000
vn -1.0000 -0.0000 -0.0000
vn 0.0000 0.0000 -1.0000
usemtl skybox
s off
f 2/1/1 4/2/1 1/3/1
f 8/4/2 6/5/2 5/6/2
f 5/7/3 2/1/3 1/3/3
f 6/8/4 3/9/4 2/1/4
f 3/9/5 8/4/5 4/2/5
f 1/3/6 8/10/6 5/11/6
f 2/1/1 3/9/1 4/2/1
f 8/4/2 7/12/2 6/5/2
f 5/7/3 6/13/3 2/1/3
f 6/8/4 7/14/4 3/9/4
f 3/9/5 7/12/5 8/4/5
f 1/3/6 4/2/6 8/10/6
