# Blender v2.78 (sub 0) OBJ File: ''
# www.blender.org
mtllib Assets/Decorations/skybox.mtl
o Cube.001
v 0.999913 1.004006 0.996065
v -1.008197 -0.987835 1.003852
v 0.991769 -0.995912 1.012202
v -0.999913 -1.004006 -0.996065
v 1.008196 0.987836 -1.003852
v 1.000054 -1.012082 -0.987715
v -1.000054 1.012083 0.987715
v -0.991769 0.995912 -1.012202
vt 1.0000 0.0000
vt 0.0000 1.0000
vt 0.0000 0.0000
vt 1.0000 0.0000
vt 0.0000 1.0000
vt 0.0000 0.0000
vt 1.0000 0.0000
vt 0.0000 1.0000
vt 1.0000 0.0000
vt 0.0000 1.0000
vt 0.0000 0.0000
vt 0.0000 0.0000
vt 1.0000 1.0000
vt 1.0000 0.0000
vt 0.0000 1.0000
vt 1.0000 1.0000
vt 1.0000 1.0000
vt 1.0000 1.0000
vt 1.0000 0.0000
vt 1.0000 1.0000
vn -0.0041 0.0081 1.0000
vn 0.0041 -0.0081 -1.0000
vn 1.0000 -0.0040 0.0042
vn 0.0041 1.0000 -0.0081
vn -1.0000 0.0040 -0.0042
vn -0.0041 -1.0000 0.0081
usemtl skybox
s 1
f 1/1/1 2/2/1 3/3/1
f 4/4/2 5/5/2 6/6/2
f 6/7/3 1/8/3 3/3/3
f 5/9/4 7/10/4 1/11/4
f 7/12/5 4/13/5 2/2/5
f 3/14/6 4/15/6 6/6/6
f 1/1/1 7/16/1 2/2/1
f 4/4/2 8/17/2 5/5/2
f 6/7/3 5/18/3 1/8/3
f 5/9/4 8/17/4 7/10/4
f 7/12/5 8/19/5 4/13/5
f 3/14/6 2/20/6 4/15/6
